<svg xmlns="http://www.w3.org/2000/svg" viewBox="0 0 44 44" fill="none">
  <!-- Compact bonefish icon for header - simplified but still clearly a bonefish -->
  <!-- Body - curved sinuous shape -->
  <path d="M6 22 Q10 17 18 16 Q26 15 32 17 Q38 19 40 22 Q38 25 32 27 Q26 29 18 28 Q10 27 6 22Z" fill="#0EA5E9"/>
  <!-- Lighter top -->
  <path d="M6 22 Q10 17 18 16 Q26 15 32 17 Q38 19 40 22 Q36 21 32 21 Q26 20 18 21 Q10 22 6 24Z" fill="#38BDF8" opacity="0.6"/>
  <!-- Tail - forked -->
  <path d="M40 22 Q43 18 44 16 Q43 20 42 22 Q43 24 44 28 Q43 26 40 22Z" fill="#0284C7"/>
  <!-- Eye -->
  <circle cx="10" cy="21" r="1.2" fill="#0C4A6E"/>
  <circle cx="9.7" cy="20.7" r="0.4" fill="white" opacity="0.8"/>
  <!-- Scale hint - subtle lines -->
  <path d="M16 20 Q18 19 20 20" stroke="#7DD3FC" stroke-width="0.5" fill="none" opacity="0.5" stroke-linecap="round"/>
  <path d="M22 19.5 Q24 18.5 26 19.5" stroke="#7DD3FC" stroke-width="0.5" fill="none" opacity="0.5" stroke-linecap="round"/>
  <path d="M28 20 Q30 19 32 20" stroke="#7DD3FC" stroke-width="0.5" fill="none" opacity="0.4" stroke-linecap="round"/>
  <path d="M16 24 Q18 25 20 24" stroke="#0369A1" stroke-width="0.5" fill="none" opacity="0.4" stroke-linecap="round"/>
  <path d="M22 24.5 Q24 25.5 26 24.5" stroke="#0369A1" stroke-width="0.5" fill="none" opacity="0.4" stroke-linecap="round"/>
  <path d="M28 24 Q30 25 32 24" stroke="#0369A1" stroke-width="0.5" fill="none" opacity="0.3" stroke-linecap="round"/>
  <!-- Dorsal line -->
  <path d="M14 18 Q18 16.5 22 17 Q26 17.5 30 18.5" stroke="#0369A1" stroke-width="0.5" fill="none" opacity="0.4" stroke-linecap="round"/>
</svg>
