<svg xmlns="http://www.w3.org/2000/svg" viewBox="0 0 220 140" fill="none">
  <defs>
    <linearGradient id="lagoon" x1="38" y1="86" x2="184" y2="104" gradientUnits="userSpaceOnUse">
      <stop stop-color="#569FAA"/>
      <stop offset="1" stop-color="#174F5D"/>
    </linearGradient>
    <linearGradient id="bonefish-body" x1="48" y1="40" x2="165" y2="94" gradientUnits="userSpaceOnUse">
      <stop stop-color="#F4F2EC"/>
      <stop offset="0.58" stop-color="#B9CFCC"/>
      <stop offset="1" stop-color="#7F9EA2"/>
    </linearGradient>
    <linearGradient id="bonefish-fin" x1="106" y1="39" x2="196" y2="86" gradientUnits="userSpaceOnUse">
      <stop stop-color="#1F6574"/>
      <stop offset="1" stop-color="#0B2F39"/>
    </linearGradient>
  </defs>

  <path
    d="M30 71C35 43 61 24 105 23C143 22 171 36 188 58"
    stroke="#CAA56C"
    stroke-linecap="round"
    stroke-width="6"
    opacity="0.92"
  />
  <path
    d="M42 94C60 108 89 115 121 112C151 109 176 97 191 80"
    stroke="url(#lagoon)"
    stroke-linecap="round"
    stroke-width="7"
  />
  <path
    d="M44 92C67 107 102 111 138 102C156 97 171 89 182 78C177 95 162 109 141 117C106 129 64 118 44 92Z"
    fill="url(#lagoon)"
    opacity="0.18"
  />

  <path
    d="M27 69C42 52 73 43 109 43C129 43 146 47 159 55C164 58 166 63 166 69C166 75 164 80 159 83C146 91 129 95 109 95C73 95 42 86 27 69Z"
    fill="url(#bonefish-body)"
    stroke="#0B2F39"
    stroke-linejoin="round"
    stroke-width="3"
  />
  <path
    d="M166 69C177 60 189 53 204 48C198 58 197 65 198 69C197 75 198 82 204 92C189 86 177 79 166 69Z"
    fill="url(#bonefish-fin)"
    stroke="#0B2F39"
    stroke-linejoin="round"
    stroke-width="3"
  />
  <path
    d="M108 44C117 33 127 29 138 28C136 39 132 46 124 52"
    fill="url(#bonefish-fin)"
    opacity="0.95"
  />
  <path
    d="M92 83C99 93 104 102 111 108C112 97 108 88 100 80"
    fill="#174F5D"
    opacity="0.9"
  />
  <path
    d="M55 68C79 61 110 60 140 68C123 77 87 79 55 68Z"
    fill="#F8FAF8"
    opacity="0.44"
  />
  <path
    d="M78 51C96 46 122 46 144 54"
    stroke="#174F5D"
    stroke-linecap="round"
    stroke-width="2.6"
    opacity="0.42"
  />
  <path
    d="M95 57C97 61 97 75 95 81"
    stroke="#0B2F39"
    stroke-linecap="round"
    stroke-width="2.2"
    opacity="0.28"
  />
  <circle cx="49" cy="65" r="4.3" fill="#0B2F39"/>
  <circle cx="47.7" cy="63.9" r="1.35" fill="#FBF8F2" opacity="0.95"/>
</svg>
