<svg xmlns="http://www.w3.org/2000/svg" viewBox="0 0 300 160" fill="none">
  <defs>
    <!-- Body gradients for depth -->
    <linearGradient id="bodyGrad" x1="0%" y1="0%" x2="100%" y2="100%">
      <stop offset="0%" stop-color="#9DD9E5"/>
      <stop offset="35%" stop-color="#6BB8D4"/>
      <stop offset="65%" stop-color="#4A9BB8"/>
      <stop offset="100%" stop-color="#2D7A9A"/>
    </linearGradient>
    <linearGradient id="bodyDark" x1="0%" y1="0%" x2="80%" y2="100%">
      <stop offset="0%" stop-color="#5A9AB8"/>
      <stop offset="100%" stop-color="#1E5A75"/>
    </linearGradient>
    <linearGradient id="tailGrad" x1="0%" y1="50%" x2="100%" y2="50%">
      <stop offset="0%" stop-color="#4A9BB8"/>
      <stop offset="100%" stop-color="#1E5A75"/>
    </linearGradient>
    <linearGradient id="dorsalGrad" x1="0%" y1="100%" x2="0%" y2="0%">
      <stop offset="0%" stop-color="#3A8090"/>
      <stop offset="100%" stop-color="#6BB8D4"/>
    </linearGradient>
    <linearGradient id="pectGrad" x1="0%" y1="0%" x2="100%" y2="100%">
      <stop offset="0%" stop-color="#4A9BB8"/>
      <stop offset="100%" stop-color="#7DC4D8"/>
    </linearGradient>
    <radialGradient id="eyeGrad" cx="35%" cy="35%" r="65%">
      <stop offset="0%" stop-color="#2C4A5A"/>
      <stop offset="100%" stop-color="#0A1E28"/>
    </radialGradient>
    <radialGradient id="snoutGrad" cx="0%" cy="50%" r="100%">
      <stop offset="0%" stop-color="#A8E0ED"/>
      <stop offset="100%" stop-color="#6BB8D4"/>
    </radialGradient>
  </defs>

  <!-- Drop shadow -->
  <ellipse cx="150" cy="90" rx="110" ry="28" fill="#0A1E28" opacity="0.15"/>

  <!-- ===== TAIL / CAUDAL FIN ===== -->
  <!-- Tail spread - left lobe -->
  <path d="M252 80 Q275 55 292 38 Q280 58 278 70 Q285 58 272 48 Q268 65 252 80Z" fill="url(#tailGrad)" opacity="0.95"/>
  <!-- Tail spread - right lobe -->
  <path d="M252 80 Q275 105 292 122 Q280 102 278 90 Q285 102 272 112 Q268 95 252 80Z" fill="url(#tailGrad)" opacity="0.95"/>
  <!-- Tail peduncle (narrowing) -->
  <path d="M238 78 Q248 75 255 76 Q248 80 255 84 Q248 85 238 82Z" fill="#1E5A75"/>
  <!-- Tail membrane detail left -->
  <path d="M252 80 Q268 62 278 52 M252 80 Q262 65 272 58" stroke="#1E5A75" stroke-width="0.6" fill="none" opacity="0.5"/>
  <!-- Tail membrane detail right -->
  <path d="M252 80 Q268 98 278 108 M252 80 Q262 95 272 102" stroke="#1E5A75" stroke-width="0.6" fill="none" opacity="0.5"/>

  <!-- ===== DORSAL FIN ===== -->
  <path d="M125 74 Q132 52 145 48 Q158 44 172 47 Q185 50 192 55 Q188 60 182 63 Q168 62 155 65 Q142 68 132 74Z" fill="url(#dorsalGrad)" opacity="0.85"/>
  <!-- Dorsal fin rays -->
  <path d="M135 62 Q138 55 142 52 M142 52 Q145 50 148 52 Q146 55 144 60" stroke="#A8E0ED" stroke-width="0.5" fill="none" opacity="0.5"/>
  <path d="M152 58 Q155 50 159 48 Q162 46 165 50 Q163 54 158 58" stroke="#A8E0ED" stroke-width="0.5" fill="none" opacity="0.5"/>
  <path d="M170 53 Q173 48 177 49 Q176 53 172 57" stroke="#A8E0ED" stroke-width="0.5" fill="none" opacity="0.5"/>

  <!-- ===== PECTORAL FINS ===== -->
  <!-- Left pectoral (angled up from body) -->
  <path d="M92 80 Q82 68 70 62 Q76 70 72 78 Q78 76 80 82 Q84 78 92 82Z" fill="url(#pectGrad)" opacity="0.8"/>
  <path d="M72 70 Q78 72 80 76" stroke="#A8E0ED" stroke-width="0.5" fill="none" opacity="0.5"/>
  <!-- Right pectoral -->
  <path d="M92 82 Q82 94 70 100 Q76 92 72 84 Q78 86 80 82 Q84 86 92 80Z" fill="url(#pectGrad)" opacity="0.8"/>
  <path d="M72 92 Q78 90 80 86" stroke="#A8E0ED" stroke-width="0.5" fill="none" opacity="0.5"/>

  <!-- ===== MAIN BODY ===== -->
  <!-- The bonefish body - sinuous, curved shape (top-down view) -->
  <path d="
    M58 80
    Q65 72 80 70
    Q100 68 130 72
    Q160 76 190 80
    Q215 84 235 82
    Q245 80 252 80
    Q245 88 235 90
    Q215 92 190 88
    Q160 84 130 80
    Q100 76 80 78
    Q65 80 58 88
    Q55 84 58 80Z
  " fill="url(#bodyGrad)"/>

  <!-- Body shading - lighter top, darker bottom (3D effect) -->
  <path d="
    M58 80
    Q65 72 80 70
    Q100 68 130 72
    Q160 76 190 80
    Q215 84 235 82
    Q245 80 248 80
    Q240 82 232 82
    Q210 84 185 82
    Q155 79 128 78
    Q100 76 80 78
    Q65 79 58 84
    Q55 82 58 80Z
  " fill="#A8E0ED" opacity="0.3"/>

  <!-- ===== LATERAL LINE ===== -->
  <path d="M60 84 Q90 82 130 81 Q175 80 220 81 Q240 81 250 80" 
        stroke="#1E5A75" stroke-width="1" fill="none" opacity="0.4" stroke-linecap="round"/>

  <!-- ===== SCALES ===== -->
  <!-- Each scale is a small arc, overlapping pattern from gills to tail -->
  <!-- Row 1 (top) -->
  <path d="M75 74 Q78 72 80 74 Q78 75 75 74Z" fill="none" stroke="#A8E0ED" stroke-width="0.5" opacity="0.7"/>
  <path d="M84 73 Q87 71 89 73 Q87 74 84 73Z" fill="none" stroke="#A8E0ED" stroke-width="0.5" opacity="0.7"/>
  <path d="M93 72 Q96 70 98 72 Q96 73 93 72Z" fill="none" stroke="#A8E0ED" stroke-width="0.5" opacity="0.7"/>
  <path d="M102 71 Q105 69 107 71 Q105 72 102 71Z" fill="none" stroke="#A8E0ED" stroke-width="0.5" opacity="0.7"/>
  <path d="M111 70 Q114 68 116 70 Q114 71 111 70Z" fill="none" stroke="#A8E0ED" stroke-width="0.5" opacity="0.7"/>
  <path d="M120 70 Q123 68 125 70 Q123 71 120 70Z" fill="none" stroke="#A8E0ED" stroke-width="0.5" opacity="0.7"/>
  <path d="M129 70 Q132 68 134 70 Q132 71 129 70Z" fill="none" stroke="#A8E0ED" stroke-width="0.5" opacity="0.7"/>
  <path d="M138 71 Q141 69 143 71 Q141 72 138 71Z" fill="none" stroke="#A8E0ED" stroke-width="0.5" opacity="0.7"/>
  <path d="M147 72 Q150 70 152 72 Q150 73 147 72Z" fill="none" stroke="#A8E0ED" stroke-width="0.5" opacity="0.7"/>
  <path d="M156 73 Q159 71 161 73 Q159 74 156 73Z" fill="none" stroke="#A8E0ED" stroke-width="0.5" opacity="0.7"/>
  <path d="M165 74 Q168 72 170 74 Q168 75 165 74Z" fill="none" stroke="#A8E0ED" stroke-width="0.5" opacity="0.7"/>
  <path d="M174 76 Q177 74 179 76 Q177 77 174 76Z" fill="none" stroke="#A8E0ED" stroke-width="0.5" opacity="0.7"/>
  <path d="M183 78 Q186 76 188 78 Q186 79 183 78Z" fill="none" stroke="#A8E0ED" stroke-width="0.5" opacity="0.6"/>
  <path d="M192 80 Q195 78 197 80 Q195 81 192 80Z" fill="none" stroke="#A8E0ED" stroke-width="0.5" opacity="0.6"/>
  <path d="M201 82 Q204 80 206 82 Q204 83 201 82Z" fill="none" stroke="#A8E0ED" stroke-width="0.5" opacity="0.5"/>
  <path d="M210 84 Q213 82 215 84 Q213 85 210 84Z" fill="none" stroke="#A8E0ED" stroke-width="0.5" opacity="0.5"/>
  <path d="M219 85 Q222 83 224 85 Q222 86 219 85Z" fill="none" stroke="#A8E0ED" stroke-width="0.5" opacity="0.4"/>
  <path d="M228 85 Q231 83 233 85 Q231 86 228 85Z" fill="none" stroke="#A8E0ED" stroke-width="0.5" opacity="0.4"/>
  <path d="M237 84 Q240 82 242 84 Q240 85 237 84Z" fill="none" stroke="#A8E0ED" stroke-width="0.5" opacity="0.3"/>

  <!-- Row 2 (middle-top) -->
  <path d="M72 78 Q75 76 77 78 Q75 79 72 78Z" fill="none" stroke="#A8E0ED" stroke-width="0.5" opacity="0.6"/>
  <path d="M80 77 Q83 75 85 77 Q83 78 80 77Z" fill="none" stroke="#A8E0ED" stroke-width="0.5" opacity="0.7"/>
  <path d="M88 76 Q91 74 93 76 Q91 77 88 76Z" fill="none" stroke="#A8E0ED" stroke-width="0.5" opacity="0.7"/>
  <path d="M96 75 Q99 73 101 75 Q99 76 96 75Z" fill="none" stroke="#A8E0ED" stroke-width="0.5" opacity="0.7"/>
  <path d="M104 74 Q107 72 109 74 Q107 75 104 74Z" fill="none" stroke="#A8E0ED" stroke-width="0.5" opacity="0.7"/>
  <path d="M112 73 Q115 71 117 73 Q115 74 112 73Z" fill="none" stroke="#A8E0ED" stroke-width="0.5" opacity="0.7"/>
  <path d="M120 73 Q123 71 125 73 Q123 74 120 73Z" fill="none" stroke="#A8E0ED" stroke-width="0.5" opacity="0.7"/>
  <path d="M128 73 Q131 71 133 73 Q131 74 128 73Z" fill="none" stroke="#A8E0ED" stroke-width="0.5" opacity="0.7"/>
  <path d="M136 73 Q139 71 141 73 Q139 74 136 73Z" fill="none" stroke="#A8E0ED" stroke-width="0.5" opacity="0.7"/>
  <path d="M144 74 Q147 72 149 74 Q147 75 144 74Z" fill="none" stroke="#A8E0ED" stroke-width="0.5" opacity="0.7"/>
  <path d="M152 75 Q155 73 157 75 Q155 76 152 75Z" fill="none" stroke="#A8E0ED" stroke-width="0.5" opacity="0.7"/>
  <path d="M160 76 Q163 74 165 76 Q163 77 160 76Z" fill="none" stroke="#A8E0ED" stroke-width="0.5" opacity="0.7"/>
  <path d="M168 78 Q171 76 173 78 Q171 79 168 78Z" fill="none" stroke="#A8E0ED" stroke-width="0.5" opacity="0.7"/>
  <path d="M176 80 Q179 78 181 80 Q179 81 176 80Z" fill="none" stroke="#A8E0ED" stroke-width="0.5" opacity="0.6"/>
  <path d="M184 82 Q187 80 189 82 Q187 83 184 82Z" fill="none" stroke="#A8E0ED" stroke-width="0.5" opacity="0.6"/>
  <path d="M192 84 Q195 82 197 84 Q195 85 192 84Z" fill="none" stroke="#A8E0ED" stroke-width="0.5" opacity="0.5"/>
  <path d="M200 85 Q203 83 205 85 Q203 86 200 85Z" fill="none" stroke="#A8E0ED" stroke-width="0.5" opacity="0.5"/>
  <path d="M208 86 Q211 84 213 86 Q211 87 208 86Z" fill="none" stroke="#A8E0ED" stroke-width="0.5" opacity="0.4"/>
  <path d="M216 86 Q219 84 221 86 Q219 87 216 86Z" fill="none" stroke="#A8E0ED" stroke-width="0.5" opacity="0.4"/>
  <path d="M224 85 Q227 83 229 85 Q227 86 224 85Z" fill="none" stroke="#A8E0ED" stroke-width="0.5" opacity="0.3"/>
  <path d="M232 84 Q235 82 237 84 Q235 85 232 84Z" fill="none" stroke="#A8E0ED" stroke-width="0.5" opacity="0.3"/>

  <!-- Row 3 (middle-bottom) -->
  <path d="M72 82 Q75 80 77 82 Q75 83 72 82Z" fill="none" stroke="#6BB8D4" stroke-width="0.5" opacity="0.5"/>
  <path d="M80 81 Q83 79 85 81 Q83 82 80 81Z" fill="none" stroke="#6BB8D4" stroke-width="0.5" opacity="0.6"/>
  <path d="M88 80 Q91 78 93 80 Q91 81 88 80Z" fill="none" stroke="#6BB8D4" stroke-width="0.5" opacity="0.6"/>
  <path d="M96 79 Q99 77 101 79 Q99 80 96 79Z" fill="none" stroke="#6BB8D4" stroke-width="0.5" opacity="0.6"/>
  <path d="M104 78 Q107 76 109 78 Q107 79 104 78Z" fill="none" stroke="#6BB8D4" stroke-width="0.5" opacity="0.6"/>
  <path d="M112 77 Q115 75 117 77 Q115 78 112 77Z" fill="none" stroke="#6BB8D4" stroke-width="0.5" opacity="0.6"/>
  <path d="M120 77 Q123 75 125 77 Q123 78 120 77Z" fill="none" stroke="#6BB8D4" stroke-width="0.5" opacity="0.6"/>
  <path d="M128 77 Q131 75 133 77 Q131 78 128 77Z" fill="none" stroke="#6BB8D4" stroke-width="0.5" opacity="0.6"/>
  <path d="M136 78 Q139 76 141 78 Q139 79 136 78Z" fill="none" stroke="#6BB8D4" stroke-width="0.5" opacity="0.6"/>
  <path d="M144 79 Q147 77 149 79 Q147 80 144 79Z" fill="none" stroke="#6BB8D4" stroke-width="0.5" opacity="0.6"/>
  <path d="M152 80 Q155 78 157 80 Q155 81 152 80Z" fill="none" stroke="#6BB8D4" stroke-width="0.5" opacity="0.6"/>
  <path d="M160 82 Q163 80 165 82 Q163 83 160 82Z" fill="none" stroke="#6BB8D4" stroke-width="0.5" opacity="0.6"/>
  <path d="M168 84 Q171 82 173 84 Q171 85 168 84Z" fill="none" stroke="#6BB8D4" stroke-width="0.5" opacity="0.5"/>
  <path d="M176 86 Q179 84 181 86 Q179 87 176 86Z" fill="none" stroke="#6BB8D4" stroke-width="0.5" opacity="0.5"/>
  <path d="M184 88 Q187 86 189 88 Q187 89 184 88Z" fill="none" stroke="#6BB8D4" stroke-width="0.5" opacity="0.4"/>
  <path d="M192 89 Q195 87 197 89 Q195 90 192 89Z" fill="none" stroke="#6BB8D4" stroke-width="0.5" opacity="0.4"/>
  <path d="M200 89 Q203 87 205 89 Q203 90 200 89Z" fill="none" stroke="#6BB8D4" stroke-width="0.5" opacity="0.3"/>
  <path d="M208 88 Q211 86 213 88 Q211 89 208 88Z" fill="none" stroke="#6BB8D4" stroke-width="0.5" opacity="0.3"/>
  <path d="M216 87 Q219 85 221 87 Q219 88 216 87Z" fill="none" stroke="#6BB8D4" stroke-width="0.5" opacity="0.3"/>
  <path d="M224 85 Q227 83 229 85 Q227 86 224 85Z" fill="none" stroke="#6BB8D4" stroke-width="0.5" opacity="0.25"/>

  <!-- Row 4 (bottom) -->
  <path d="M76 86 Q79 84 81 86 Q79 87 76 86Z" fill="none" stroke="#4A9BB8" stroke-width="0.5" opacity="0.4"/>
  <path d="M84 85 Q87 83 89 85 Q87 86 84 85Z" fill="none" stroke="#4A9BB8" stroke-width="0.5" opacity="0.5"/>
  <path d="M92 84 Q95 82 97 84 Q95 85 92 84Z" fill="none" stroke="#4A9BB8" stroke-width="0.5" opacity="0.5"/>
  <path d="M100 83 Q103 81 105 83 Q103 84 100 83Z" fill="none" stroke="#4A9BB8" stroke-width="0.5" opacity="0.5"/>
  <path d="M108 82 Q111 80 113 82 Q111 83 108 82Z" fill="none" stroke="#4A9BB8" stroke-width="0.5" opacity="0.5"/>
  <path d="M116 81 Q119 79 121 81 Q119 82 116 81Z" fill="none" stroke="#4A9BB8" stroke-width="0.5" opacity="0.5"/>
  <path d="M124 81 Q127 79 129 81 Q127 82 124 81Z" fill="none" stroke="#4A9BB8" stroke-width="0.5" opacity="0.5"/>
  <path d="M132 82 Q135 80 137 82 Q135 83 132 82Z" fill="none" stroke="#4A9BB8" stroke-width="0.5" opacity="0.5"/>
  <path d="M140 83 Q143 81 145 83 Q143 84 140 83Z" fill="none" stroke="#4A9BB8" stroke-width="0.5" opacity="0.5"/>
  <path d="M148 85 Q151 83 153 85 Q151 86 148 85Z" fill="none" stroke="#4A9BB8" stroke-width="0.5" opacity="0.5"/>
  <path d="M156 87 Q159 85 161 87 Q159 88 156 87Z" fill="none" stroke="#4A9BB8" stroke-width="0.5" opacity="0.4"/>
  <path d="M164 89 Q167 87 169 89 Q167 90 164 89Z" fill="none" stroke="#4A9BB8" stroke-width="0.5" opacity="0.4"/>
  <path d="M172 91 Q175 89 177 91 Q175 92 172 91Z" fill="none" stroke="#4A9BB8" stroke-width="0.5" opacity="0.3"/>
  <path d="M180 92 Q183 90 185 92 Q183 93 180 92Z" fill="none" stroke="#4A9BB8" stroke-width="0.5" opacity="0.3"/>
  <path d="M188 92 Q191 90 193 92 Q191 93 188 92Z" fill="none" stroke="#4A9BB8" stroke-width="0.5" opacity="0.25"/>
  <path d="M196 91 Q199 89 201 91 Q199 92 196 91Z" fill="none" stroke="#4A9BB8" stroke-width="0.5" opacity="0.25"/>
  <path d="M204 89 Q207 87 209 89 Q207 90 204 89Z" fill="none" stroke="#4A9BB8" stroke-width="0.5" opacity="0.2"/>
  <path d="M212 87 Q215 85 217 87 Q215 88 212 87Z" fill="none" stroke="#4A9BB8" stroke-width="0.5" opacity="0.2"/>

  <!-- ===== HEAD / SNOUT ===== -->
  <!-- Head shape - bonefish has a slightly bulbous head tapering to a rounded snout -->
  <path d="
    M58 80
    Q52 80 46 79
    Q40 78 36 77
    Q34 78 36 79
    Q40 80 46 81
    Q52 82 58 82
    Q55 81 58 80Z
  " fill="url(#snoutGrad)"/>

  <!-- Mouth - inferior (bonefish mouths are on the bottom of the snout) -->
  <ellipse cx="37" cy="80.5" rx="5" ry="1.2" fill="#1E5A75" opacity="0.6"/>
  <path d="M33 80.5 Q37 79.5 41 80.5" stroke="#1E5A75" stroke-width="0.8" fill="none" stroke-linecap="round"/>

  <!-- ===== GILL PLATE / OPERCUUM ===== -->
  <path d="M58 78 Q54 78 52 80 Q54 82 58 82" stroke="#1E5A75" stroke-width="0.8" fill="none" opacity="0.4"/>
  <path d="M62 77 Q58 76 56 78 Q58 80 62 80" stroke="#1E5A75" stroke-width="0.5" fill="none" opacity="0.3"/>

  <!-- Gill membrane lines -->
  <path d="M54 78 Q56 80 54 82" stroke="#1E5A75" stroke-width="0.4" fill="none" opacity="0.3"/>
  <path d="M56 77 Q58 79 56 81" stroke="#1E5A75" stroke-width="0.4" fill="none" opacity="0.3"/>
  <path d="M58 77 Q60 79 58 81" stroke="#1E5A75" stroke-width="0.4" fill="none" opacity="0.3"/>

  <!-- ===== EYE ===== -->
  <!-- Eye socket / ring -->
  <circle cx="48" cy="78" r="4.5" fill="#0F2A38" opacity="0.8"/>
  <!-- Iris -->
  <circle cx="48" cy="78" r="3.5" fill="url(#eyeGrad)"/>
  <!-- Pupil -->
  <circle cx="48" cy="78" r="1.8" fill="#050D12"/>
  <!-- Highlight -->
  <circle cx="47" cy="77" r="1" fill="white" opacity="0.7"/>
  <circle cx="49" cy="79" r="0.4" fill="white" opacity="0.4"/>
  <!-- Eye ring detail -->
  <circle cx="48" cy="78" r="4.5" fill="none" stroke="#2C4A5A" stroke-width="0.5" opacity="0.6"/>

  <!-- ===== BODY EDGE HIGHLIGHT ===== -->
  <!-- Top edge highlight for 3D depth -->
  <path d="M58 80 Q65 72 80 70 Q100 68 130 72 Q160 76 190 80 Q215 84 235 82"
        stroke="#C8EDF5" stroke-width="0.6" fill="none" opacity="0.35" stroke-linecap="round"/>

  <!-- Bottom edge shadow -->
  <path d="M58 88 Q65 88 80 88 Q100 90 130 90 Q160 92 190 92 Q215 94 235 92"
        stroke="#0F2A38" stroke-width="0.4" fill="none" opacity="0.2"/>

  <!-- ===== FISH SHADOW / DEPTH ===== -->
  <!-- Subtle shadow under the body to lift it off the background -->
  <ellipse cx="150" cy="88" rx="100" ry="8" fill="#0A1E28" opacity="0.08"/>
</svg>
