<?xml version="1.0" encoding="UTF-8"?>
<svg version="1.1" xmlns="http://www.w3.org/2000/svg" width="1088" height="944">
<path d="M0 0 C2.40979651 0.00523418 4.81958008 0.00715196 7.22938156 0.00866318 C30.74625463 0.0343199 54.05675338 0.55164352 77.43522263 3.31765366 C78.61020309 3.45107162 79.78518356 3.58448959 80.9957695 3.72195053 C87.00524603 4.41100061 92.99987007 5.17617615 98.99235153 5.998806 C101.26684111 6.29567622 103.53955061 6.54764626 105.82194138 6.77468491 C117.15428456 7.90965098 128.14256749 10.23653219 139.26627731 12.64431381 C143.47318821 13.53820135 147.69112178 14.3703765 151.91129684 15.19900131 C169.5088523 18.65629745 186.90556087 22.24511179 203.95475388 27.86452866 C207.42451673 29.00702059 210.91052177 30.03256712 214.43033981 31.0078392 C240.20399427 38.20450136 265.17384636 49.00829241 289.40787888 60.25124741 C290.00390915 60.52769341 290.59993942 60.8041394 291.21403122 61.08896255 C305.87876689 67.90319074 320.30528566 75.17985311 334.73453903 82.47768784 C349.82362442 90.10696626 364.93295139 97.56068913 380.43522263 104.31765366 C400.93484534 113.29524198 400.93484534 113.29524198 405.43522263 121.31765366 C405.32065057 126.40103467 404.28961687 129.16232077 400.63785934 132.74270248 C400.11723923 133.22118637 399.59661911 133.69967026 399.06022263 134.19265366 C398.52800095 134.70658676 397.99577927 135.22051987 397.44742966 135.7500267 C393.90351476 139.11962496 390.17554376 142.13913135 386.31022263 145.13015366 C381.93880727 148.61479618 380.42146036 150.69609854 379.43522263 156.31765366 C378.67395307 158.1111072 377.85699866 159.88153945 376.99772263 161.63015366 C376.58651169 162.47191147 376.17530075 163.31366928 375.75162888 164.18093491 C374.43522263 166.31765366 374.43522263 166.31765366 371.43522263 168.31765366 C371.60022263 167.65765366 371.76522263 166.99765366 371.93522263 166.31765366 C372.32845305 163.95827111 372.65683247 161.6997126 372.81022263 159.31765366 C372.859207 158.67827866 372.90819138 158.03890366 372.95866013 157.38015366 C372.08074429 153.92090321 370.20534703 152.46892048 367.43522263 150.31765366 C361.83251618 149.33879 356.0923107 149.90062829 350.43522263 150.31765366 C349.66581345 150.37421127 348.89640427 150.43076889 348.10367966 150.48904037 C313.55326593 153.42263373 274.62376617 160.84330601 243.43522263 176.31765366 C242.79794235 176.62815659 242.16066208 176.93865952 241.50407028 177.25857162 C229.82599665 182.99992668 215.48733612 190.21342668 209.43522263 202.31765366 C208.96785468 206.39023821 208.96785468 206.39023821 210.68131638 209.90359116 C217.61240723 215.49168667 228.06761185 215.02745099 236.43522263 214.31765366 C244.92836295 212.79955611 249.45948941 206.62882601 254.81022263 200.38015366 C276.72359963 175.28113153 313.11018938 165.82428571 345.27897263 163.52859116 C346.66408825 163.45257871 348.04952726 163.38224115 349.43522263 163.31765366 C350.15323044 163.28059311 350.87123825 163.24353256 351.61100388 163.20534897 C363.4059558 162.66873179 363.4059558 162.66873179 366.84537888 164.83718491 C367.63235153 165.57001694 367.63235153 165.57001694 368.43522263 166.31765366 C368.01491418 171.22125222 366.09344337 173.1478469 362.43522263 176.31765366 C359.97426848 177.66033914 357.41905667 178.67380071 354.81022263 179.69265366 C344.86837151 183.80801191 333.57171849 189.11290986 327.43522263 198.31765366 C327.64178031 200.95642809 328.15347683 202.0352173 330.02897263 203.91530991 C330.65803513 204.39870834 331.28709763 204.88210678 331.93522263 205.38015366 C334.60175029 207.44015556 335.33155697 208.00665667 336.43522263 211.31765366 C335.17323044 211.16425522 333.91123825 211.01085678 332.61100388 210.85280991 C322.53888729 209.85072356 312.37753924 209.83684587 302.26408005 209.65725327 C300.46435605 209.62482058 298.66463275 209.5923499 296.86491013 209.55984116 C295.97582458 209.54451843 295.08673904 209.52919571 294.17071152 209.51340866 C289.38412928 209.41927895 284.62163929 209.23450938 279.84565353 208.9033165 C265.69137307 207.25189746 265.69137307 207.25189746 253.12272263 212.33327866 C250.3007995 215.25414882 248.01802797 218.48116536 245.69547653 221.80154037 C243.26729328 224.72269845 240.24139485 225.4287353 236.65397263 226.15359116 C234.23932661 226.33213892 231.85559988 226.36026593 229.43522263 226.31765366 C229.76522263 227.30765366 230.09522263 228.29765366 230.43522263 229.31765366 C239.19936332 229.38796917 247.96340312 229.4408701 256.72776699 229.47309017 C260.79987039 229.48857435 264.87177723 229.50948556 268.94376755 229.54397202 C302.34695087 231.62880116 302.34695087 231.62880116 332.87272263 221.50515366 C334.73775706 218.89410545 335.59448767 216.4003485 336.43522263 213.31765366 C337.09522263 213.31765366 337.75522263 213.31765366 338.43522263 213.31765366 C338.99194244 220.0477776 338.87599079 224.89201663 335.01725388 230.56374741 C330.24800345 235.85113862 325.38705317 237.56530123 318.72037888 239.45437241 C317.76576767 239.7349852 316.81115646 240.01559799 315.82761765 240.3047142 C312.72065418 241.21552215 309.60929834 242.11024342 306.49772263 243.00515366 C304.3420124 243.63455289 302.18665899 244.26517547 300.03165817 244.89699936 C295.76595533 246.14649137 291.49878566 247.39073789 287.2301445 248.63015366 C280.05714713 250.71517164 272.90039069 252.85149536 265.74772263 255.00515366 C264.6021489 255.34860825 263.45657516 255.69206284 262.27628708 256.04592514 C255.59195934 258.05323217 248.91577849 260.0861211 242.24381638 262.13405991 C241.4501416 262.37746613 240.65646683 262.62087234 239.8387413 262.87165451 C235.98744879 264.05301056 232.13694297 265.23680008 228.28800583 266.42580795 C220.1050021 268.94510871 211.89908763 271.34459297 203.6386528 273.59835434 C197.61730069 275.2440157 191.6549764 277.05033366 185.70866013 278.95046616 C185.02126755 279.16992905 184.33387497 279.38939194 183.62565231 279.61550522 C181.28309018 280.36642014 178.94118316 281.11935781 176.59928513 281.87234116 C174.83638769 282.43783016 173.07336195 283.00291929 171.31022263 283.56765366 C170.3910405 283.86244614 169.47185837 284.15723862 168.52482224 284.4609642 C162.03171162 286.52906725 155.51103371 288.48557226 148.97330856 290.40749741 C135.25878638 294.44815873 121.73129482 298.87863846 108.22819138 303.57400131 C94.7414975 308.25661882 81.17318266 312.67179037 67.58219528 317.04128647 C66.76422974 317.30491486 65.94626419 317.56854324 65.10351181 317.84016037 C63.58512098 318.32928231 62.06619455 318.8167465 60.54659653 319.30210495 C56.43558269 320.62608859 52.38384217 322.05772801 48.34710312 323.59315109 C42.84873036 325.67674637 37.28864531 327.60025894 31.74772263 329.56765366 C31.06424759 329.81065201 30.38077255 330.05365036 29.67658615 330.3040123 C20.22406312 333.66209644 10.7540677 336.95085896 1.2079277 340.03542709 C-3.68099111 341.62879077 -8.44884123 343.4236643 -13.21052933 345.3647728 C-15.24922731 346.18993491 -17.29628846 346.9737009 -19.35774612 347.73952866 C-31.93087438 352.65881934 -36.49264181 359.76430827 -43.13191605 371.00417709 C-46.39939721 376.5310147 -49.90209182 381.88152791 -53.47887039 387.21113205 C-56.7979896 392.15806575 -60.07208857 397.1326249 -63.32649612 402.12234116 C-64.31015089 403.62759471 -65.29387518 405.13280283 -66.277668 406.63796616 C-67.77347856 408.92709537 -69.26809461 411.21696499 -70.75935745 413.50905991 C-85.16196397 435.63595628 -85.16196397 435.63595628 -92.18977737 441.69265366 C-93.26098831 442.63238022 -93.26098831 442.63238022 -94.35383987 443.59109116 C-98.27421326 446.65258415 -100.48136818 448.31765366 -105.56477737 448.31765366 C-106.9783634 445.4904816 -106.72894172 443.06313941 -106.77571487 439.90359116 C-106.80206009 438.59205063 -106.8284053 437.2805101 -106.85554886 435.92922592 C-106.87547394 434.89005524 -106.87547394 434.89005524 -106.89580154 433.8298912 C-107.13756824 422.07996244 -107.63764277 410.76008891 -110.56477737 399.31765366 C-110.93118777 397.84773234 -111.2970616 396.37767717 -111.66243362 394.90749741 C-111.96020706 393.72284897 -112.2579805 392.53820053 -112.56477737 391.31765366 C-123.92138235 394.9823737 -135.07329702 398.98516624 -146.168293 403.37478256 C-158.03695054 408.04437867 -169.96526836 412.5394737 -182.02180862 416.70046616 C-194.68501423 421.14748243 -207.18496842 426.07227924 -219.68977737 430.94265366 C-220.84881577 431.39386078 -220.84881577 431.39386078 -222.03126907 431.8541832 C-275.42907383 452.44229087 -275.42907383 452.44229087 -327.25227737 476.63015366 C-328.36989456 477.20378647 -329.48751175 477.77741928 -330.63899612 478.36843491 C-334.59908671 481.00673291 -337.76987374 483.89488887 -339.29915237 488.55593491 C-339.34193488 494.23531259 -337.75519581 497.67784501 -334.04133987 501.94655991 C-311.33767526 523.68334921 -279.31826354 536.41238759 -251.24300003 549.65578842 C-244.33102005 552.93888824 -237.48530316 556.34547695 -230.64680862 559.77859116 C-229.66628525 560.27062027 -228.68576187 560.76264938 -227.67552567 561.26958847 C-222.6949978 563.77040083 -217.71752431 566.2770997 -212.74348831 568.79079819 C-210.88318602 569.72693125 -209.02283641 570.6629703 -207.16243362 571.59890366 C-205.89022713 572.24513184 -205.89022713 572.24513184 -204.59231949 572.90441513 C-199.66903032 575.37624405 -194.75834222 577.47695314 -189.56477737 579.31765366 C-190.95503128 578.39532944 -190.95503128 578.39532944 -192.37337112 577.45437241 C-193.58328736 576.63838239 -194.7929075 575.82195321 -196.00227737 575.00515366 C-196.61393753 574.60103256 -197.22559769 574.19691147 -197.855793 573.78054428 C-202.45149612 570.65749741 -202.45149612 570.65749741 -203.56477737 567.31765366 C-196.72514172 563.10551243 -189.76930634 559.24057472 -182.62727737 555.56765366 C-180.58013002 554.5095867 -178.53325853 553.45098583 -176.48665237 552.39187241 C-175.48053909 551.87157455 -174.47442581 551.3512767 -173.43782425 550.81521225 C-170.89093843 549.48766317 -168.35740304 548.13959063 -165.83040237 546.77468491 C-145.73898033 535.94372371 -124.82005731 526.7848867 -103.90852737 517.66921616 C-99.94411914 515.93649165 -96.02627138 514.13128249 -92.12727737 512.25515366 C-65.02064913 499.65579126 -35.48388294 489.69158143 -6.58797073 482.11306381 C-4.40408559 481.53847786 -2.22292249 480.95351166 -0.04353714 480.36208725 C39.97089269 469.52685068 80.94417977 463.38132395 122.43522263 467.31765366 C122.76522263 468.63765366 123.09522263 469.95765366 123.43522263 471.31765366 C118.86829545 475.3877603 113.71809942 477.93528318 108.31022263 480.69265366 C107.31192429 481.20795639 106.31362595 481.72325912 105.28507614 482.25417709 C102.00435408 483.94702866 98.71992369 485.63253727 95.43522263 487.31765366 C76.33424395 497.0369221 76.33424395 497.0369221 57.62272263 507.47390366 C51.30527549 511.12811327 44.86130202 514.55734292 38.42741013 518.00124741 C24.15403817 525.6634145 10.26241626 533.88121831 -3.56477737 542.31765366 C-4.9477803 543.15514145 -4.9477803 543.15514145 -6.35872269 544.00954819 C-30.77746333 558.79679794 -54.7874445 574.80533575 -76.56477737 593.31765366 C-77.12535843 593.78945053 -77.68593948 594.26124741 -78.26350784 594.74734116 C-96.57042087 610.15545594 -110.46160297 624.01681257 -114.56477737 648.31765366 C-114.68707718 649.03840073 -114.80937698 649.7591478 -114.93538284 650.50173569 C-115.44541079 653.5254254 -115.95271426 656.54915605 -116.43342972 659.57766342 C-116.99526052 663.08929147 -117.61429966 666.53066732 -118.42024612 669.99734116 C-124.64217544 697.16351143 -119.02097504 724.89227447 -114.60872269 751.87966537 C-113.53209533 758.47945916 -112.50930196 765.08702207 -111.49446487 771.69655991 C-103.48330515 846.53433213 -103.48330515 846.53433213 -74.79524612 914.24343491 C-72.56477737 917.31765366 -72.56477737 917.31765366 -72.56477737 919.31765366 C-71.90477737 919.31765366 -71.24477737 919.31765366 -70.56477737 919.31765366 C-70.56477737 919.97765366 -70.56477737 920.63765366 -70.56477737 921.31765366 C-85.9117235 920.27127097 -100.01790628 910.28316002 -110.24055862 899.34109116 C-116.97036034 891.58946639 -121.67380157 882.28368994 -126.56477737 873.31765366 C-127.33652298 871.9128978 -127.33652298 871.9128978 -128.12385941 870.47976303 C-130.15084916 866.78730947 -132.17052683 863.09113042 -134.17293167 859.38528061 C-140.09512336 848.42711126 -146.29202825 837.61756294 -152.81477737 827.00515366 C-155.71043202 822.22856095 -158.11885612 817.23756971 -160.57893753 812.22634506 C-162.43999129 808.50751256 -164.47918326 804.90139277 -166.55305862 801.29812241 C-171.96122998 791.78212479 -176.93124281 782.04745577 -181.89339066 772.29348373 C-183.42633648 769.28156223 -184.96586895 766.27307768 -186.50618362 763.26491928 C-195.4956465 745.66390115 -204.12166149 727.8948556 -212.25227737 709.88015366 C-224.39274683 680.53484282 -224.39274683 680.53484282 -248.36629105 661.45559311 C-261.07410142 656.9344799 -274.67098731 656.52116127 -288.00365067 655.66772079 C-294.08036682 655.27680481 -300.15453014 654.84957927 -306.22883987 654.42312241 C-307.48535858 654.3353302 -308.74187729 654.24753799 -310.03647232 654.15708542 C-323.83063149 653.18004283 -337.6040211 651.9887062 -351.37727737 650.75515366 C-352.50954758 650.65519089 -353.64181778 650.55522812 -354.8083992 650.45223618 C-370.17108736 649.09304333 -385.48547173 647.4517096 -400.80107498 645.64049911 C-406.59218411 644.96400323 -412.39091135 644.36101195 -418.18977737 643.75515366 C-446.42139786 640.75158161 -446.42139786 640.75158161 -451.75227737 639.19265366 C-457.72031196 637.8229408 -464.74982749 636.91594859 -470.62727737 639.07546616 C-473.58623258 640.95440271 -475.78787962 643.33266678 -477.56477737 646.31765366 C-478.81181986 655.99065889 -477.35279855 664.78987101 -474.53743362 674.01296616 C-473.62459337 677.11442339 -473.02622896 680.12149426 -472.56477737 683.31765366 C-485.15721511 681.59447797 -495.27365366 666.60530692 -502.56477737 657.31765366 C-503.23637894 656.46300522 -503.9079805 655.60835678 -504.59993362 654.72780991 C-516.16848821 639.43339878 -524.68059144 622.14695238 -528.56477737 603.31765366 C-528.76973831 602.43593491 -528.97469925 601.55421616 -529.18587112 600.64577866 C-535.02680323 572.12591707 -527.01718495 541.77088751 -511.25227737 517.69655991 C-499.960212 501.15135882 -485.98330066 485.90679709 -470.28352737 473.47780991 C-467.46432157 471.23783748 -464.73789938 468.9087148 -462.00227737 466.56765366 C-441.69761917 449.65144932 -419.04213455 435.14749352 -396.56477737 421.31765366 C-395.60595657 420.72742416 -395.60595657 420.72742416 -394.62776566 420.12527084 C-390.30177656 417.4738952 -385.94142921 414.88436446 -381.56477737 412.31765366 C-380.83194534 411.88549545 -380.09911331 411.45333725 -379.34407425 411.00808334 C-364.83753492 402.48083425 -349.97911863 394.68826772 -334.98714066 387.06032944 C-331.93502459 385.50618445 -328.88815253 383.94226782 -325.84212112 382.37624741 C-268.51662076 353.104768 -207.13776126 331.01202931 -145.73616409 311.99734116 C-143.25915273 311.22198703 -140.78884141 310.42706559 -138.31868362 309.63015366 C-137.44091263 309.34833237 -136.56314163 309.06651108 -135.65877151 308.77614975 C-133.97593048 308.23542323 -132.29406145 307.69165863 -130.61336136 307.14431381 C-127.49573418 306.1472908 -124.85951788 305.31765366 -121.56477737 305.31765366 C-124.54304367 302.33350146 -127.53073995 299.35926017 -130.52571487 296.39187241 C-131.99712621 294.92969035 -133.46847898 293.46744935 -134.93977737 292.00515366 C-135.66938675 291.28392319 -136.39899612 290.56269272 -137.15071487 289.81960678 C-148.28954231 278.73050626 -148.28954231 278.73050626 -152.56477737 272.31765366 C-156.20685077 272.94797308 -159.44326813 273.94398045 -162.87337112 275.31374741 C-163.86788284 275.707556 -164.86239456 276.10136459 -165.887043 276.50710678 C-167.42908401 277.12488998 -167.42908401 277.12488998 -169.00227737 277.75515366 C-171.04208912 278.56774071 -173.08243864 279.37897937 -175.12337112 280.18874741 C-176.02370071 280.54895981 -176.9240303 280.90917221 -177.85164261 281.28030014 C-183.16735189 283.31273501 -187.75668847 284.59592609 -193.46712112 284.95046616 C-195.42101761 285.07614975 -195.42101761 285.07614975 -197.41438675 285.20437241 C-198.08623001 285.24352768 -198.75807327 285.28268295 -199.45027542 285.32302475 C-201.49357975 285.4421466 -203.53595242 285.57218628 -205.57844925 285.70437241 C-211.58657174 286.07858073 -217.54316095 286.36280977 -223.56477737 286.31765366 C-219.82717457 283.05379637 -215.54793729 281.54362784 -210.98665237 279.77077866 C-209.72029953 279.26934341 -209.72029953 279.26934341 -208.4283638 278.75777817 C-205.72606878 277.68863657 -203.02068321 276.62761962 -200.31477737 275.56765366 C-196.78721524 274.18085904 -193.26120914 272.79019364 -189.73665237 271.39577866 C-188.87906326 271.05671494 -188.02147415 270.71765121 -187.13789749 270.36831284 C-179.19499415 267.20829799 -171.36533528 263.81236959 -163.56477737 260.31765366 C-165.16686987 256.19756184 -167.10898482 252.76383719 -169.54133987 249.08718491 C-170.56477737 247.31765366 -170.56477737 247.31765366 -170.56477737 245.31765366 C-174.26358805 246.68665906 -177.96231498 248.05589047 -181.66096878 249.42531967 C-183.52860162 250.11676055 -185.39629824 250.80802912 -187.26399612 251.49929428 C-198.76926366 255.75660664 -198.76926366 255.75660664 -210.23665237 260.11452866 C-218.63871357 263.34978605 -227.04689704 266.52465259 -235.56477737 269.44265366 C-245.74660718 272.94249052 -255.8087113 276.75726163 -265.87727737 280.56765366 C-266.69881302 280.87801559 -267.52034866 281.18837753 -268.36677933 281.50814438 C-270.74214086 282.40617732 -273.11653976 283.30670296 -275.49055862 284.20827866 C-276.20029327 284.47681656 -276.91002792 284.74535446 -277.64126968 285.02202988 C-280.87803248 286.25528202 -284.06162961 287.53393152 -287.21565628 288.9663353 C-290.39840666 290.25052566 -292.82740021 290.79714629 -296.22493362 291.04812241 C-297.26013138 291.12884995 -298.29532913 291.20957748 -299.36189651 291.29275131 C-300.4394722 291.36284409 -301.51704788 291.43293686 -302.62727737 291.50515366 C-303.73385696 291.58555893 -304.84043655 291.6659642 -305.98054886 291.748806 C-313.85344635 292.28953807 -321.67321754 292.57176471 -329.56477737 292.31765366 C-326.56472761 289.87122414 -323.65600078 288.37523487 -320.07088089 286.93239975 C-319.00628647 286.5009465 -317.94169205 286.06949326 -316.84483719 285.62496567 C-315.76241745 285.1935527 -314.67999771 284.76213974 -313.56477737 284.31765366 C-312.08773834 283.72249954 -312.08773834 283.72249954 -310.58086014 283.11532211 C-307.54606526 281.89614088 -304.50728085 280.68745417 -301.46712112 279.48171616 C-300.35277191 279.03927567 -299.2384227 278.59683517 -298.09030533 278.1409874 C-295.74681253 277.21103628 -293.40309513 276.28165096 -291.05916214 275.35280991 C-287.5346742 273.95549764 -284.01161602 272.55462349 -280.4886055 271.15359116 C-268.22884842 266.28759926 -255.94298895 261.53175411 -243.54132462 257.03933334 C-240.26886132 255.84448698 -237.01123689 254.61132587 -233.75227737 253.38015366 C-226.62460676 250.69602694 -219.46732745 248.09676995 -212.30476761 245.50735092 C-207.15456756 243.64010781 -202.01760798 241.74214886 -196.89290237 239.80593491 C-195.79526566 239.39125961 -194.69762894 238.97658432 -193.5667305 238.54934311 C-191.42889262 237.73962899 -189.29213763 236.92704891 -187.15657425 236.11135483 C-185.71121292 235.56378525 -185.71121292 235.56378525 -184.23665237 235.00515366 C-183.38168167 234.67902084 -182.52671097 234.35288803 -181.64583206 234.01687241 C-179.56477737 233.31765366 -179.56477737 233.31765366 -177.56477737 233.31765366 C-181.52477737 223.41765366 -181.52477737 223.41765366 -185.56477737 213.31765366 C-195.49145607 216.51716166 -205.24793725 219.90337304 -214.93977737 223.75515366 C-221.87404911 226.5105424 -228.81507346 229.15886306 -235.87727737 231.56765366 C-268.83663486 242.87458196 -301.25811015 256.20070187 -333.27571487 269.91140366 C-336.70253909 271.37655415 -340.13336638 272.83203079 -343.56477737 274.28640366 C-357.03899133 280.01082136 -370.42404508 285.89788459 -383.71321487 292.04030991 C-384.56883011 292.43452133 -385.42444534 292.82873276 -386.30598831 293.23488998 C-388.13057248 294.10951501 -389.90791889 295.08226319 -391.66633987 296.08327866 C-395.64268833 297.77671007 -399.2814717 297.88484335 -403.56477737 298.00515366 C-404.8086824 298.05530624 -404.8086824 298.05530624 -406.07771683 298.10647202 C-413.23927911 298.37171506 -420.39910174 298.42285933 -427.56477737 298.31765366 C-424.00882841 295.33908816 -420.00217137 293.53501479 -415.81477737 291.63015366 C-410.03067882 288.95894953 -404.30481476 286.20816609 -398.62727737 283.31765366 C-392.23596644 280.08036228 -385.7490913 277.11669093 -379.18806839 274.24074936 C-374.61022297 272.23350633 -370.07746218 270.15649034 -365.56477737 268.00515366 C-338.45183377 255.1977917 -310.246435 244.53879664 -282.37727737 233.50515366 C-281.46261703 233.14266525 -280.5479567 232.78017685 -279.60557938 232.40670395 C-264.71205602 226.50779179 -249.76374907 220.80293161 -234.68977737 215.38015366 C-227.77949532 212.88270067 -220.90388931 210.31639293 -214.06477737 207.63015366 C-208.60602996 205.48904097 -203.1396014 203.37996343 -197.62727737 201.38015366 C-196.52512894 200.97925522 -195.4229805 200.57835678 -194.28743362 200.16530991 C-191.56477737 199.31765366 -191.56477737 199.31765366 -188.56477737 199.31765366 C-188.70915237 198.50683334 -188.85352737 197.69601303 -189.00227737 196.86062241 C-189.18790237 195.75331772 -189.37352737 194.64601303 -189.56477737 193.50515366 C-189.75040237 192.42620834 -189.93602737 191.34726303 -190.12727737 190.23562241 C-190.68429134 185.2473634 -190.64661505 180.33077991 -190.56477737 175.31765366 C-192.46100928 175.99487934 -194.35724026 176.6721076 -196.25346756 177.34934616 C-197.95619133 177.95744999 -199.65893023 178.56551147 -201.36168289 179.17353439 C-206.12585778 180.87481101 -210.88975118 182.57686927 -215.65315628 184.28030014 C-232.22958636 190.20668138 -232.22958636 190.20668138 -240.32258987 193.04812241 C-259.24231099 199.70275812 -277.92378499 206.92440534 -296.56477737 214.31765366 C-297.33513321 214.62291977 -298.10548904 214.92818588 -298.899189 215.24270248 C-322.02348544 224.41419576 -344.89999375 234.06258309 -367.56477737 244.31765366 C-368.17992203 244.59546677 -368.79506668 244.87327988 -369.42885208 245.15951157 C-383.94849728 251.72128837 -398.30204466 258.59316719 -412.56477737 265.69265366 C-413.23237076 266.02377151 -413.89996414 266.35488937 -414.58778763 266.69604111 C-422.19439599 270.47600996 -429.6558106 274.41812449 -436.95442581 278.77370834 C-439.54531004 280.30613931 -442.16722801 281.76075668 -444.81477737 283.19265366 C-448.71245448 285.30483417 -452.60196207 287.43030082 -456.47371292 289.58962631 C-457.87311696 290.36963272 -459.27566929 291.14401621 -460.68123245 291.9128685 C-464.62333101 294.09936722 -467.99285773 296.47391428 -471.50227737 299.31765366 C-480.04159176 305.0591492 -492.66843259 303.40767222 -502.56477737 303.31765366 C-498.67712959 299.11233816 -494.5236686 296.11259432 -489.68977737 293.06765366 C-488.56430496 292.35041122 -488.56430496 292.35041122 -487.41609573 291.61867905 C-475.86223042 284.29079799 -464.09750591 277.41410424 -452.10774612 270.82546616 C-449.26227965 269.26138988 -446.43132695 267.67673299 -443.61555862 266.05984116 C-418.13035989 251.498656 -391.41136466 239.11652074 -364.60121536 227.22195053 C-362.56437862 226.31747659 -360.52901772 225.40975336 -358.49397659 224.50124741 C-340.51147059 216.48045333 -322.39278962 208.90377237 -304.06746292 201.69997787 C-300.27463959 200.20315166 -296.48962052 198.68761994 -292.70540237 197.16921616 C-281.99175561 192.87529971 -271.23239258 188.81990796 -260.26008987 185.23562241 C-257.81820818 184.40396705 -255.44836954 183.48931976 -253.06477737 182.50515366 C-248.2063099 180.51689547 -243.2727069 178.78775165 -238.31477737 177.06765366 C-230.02741707 174.19066201 -221.74147641 171.30583302 -213.53474808 168.20461655 C-209.31538644 166.61740651 -205.18920744 165.16793048 -200.79524612 164.14577866 C-196.41823794 163.0389323 -193.23741333 162.04340225 -189.56477737 159.31765366 C-186.37671434 153.46724039 -185.44347875 146.84330358 -184.56477737 140.31765366 C-194.17193531 142.70349846 -203.43312775 145.95191872 -212.75227737 149.25515366 C-213.56256393 149.54110397 -214.37285049 149.82705429 -215.20769119 150.12166977 C-229.6119567 155.20677013 -243.93124092 160.49852401 -258.21208572 165.91918564 C-263.58530606 167.9555108 -268.9719175 169.95441651 -274.36165237 171.94655991 C-293.83306125 179.15529193 -313.09161679 186.69599284 -332.17512894 194.87575912 C-335.32430712 196.215362 -338.48309087 197.52628189 -341.65071487 198.82155991 C-353.39854408 203.62632763 -365.00683572 208.70061989 -376.56477737 213.94265366 C-377.24602676 214.25071945 -377.92727615 214.55878525 -378.62916946 214.87618637 C-391.64943865 220.77350276 -404.48004871 227.03543498 -417.06477737 233.81765366 C-421.68131662 236.28912361 -426.31105223 238.70121966 -431.02522659 240.98098373 C-450.49924031 250.43560969 -469.25051059 261.8032848 -487.56477737 273.31765366 C-488.47840042 273.89023911 -488.47840042 273.89023911 -489.4104805 274.47439194 C-503.21467469 283.1527088 -516.63415333 292.38268738 -529.56477737 302.31765366 C-530.72880081 303.20710678 -530.72880081 303.20710678 -531.91633987 304.11452866 C-542.22002705 312.05164458 -552.15646285 320.33450346 -561.56477737 329.31765366 C-562.28794144 330.0068187 -563.0111055 330.69598373 -563.75618362 331.40603256 C-574.45326882 341.66915446 -584.26686232 352.01150233 -592.56477737 364.31765366 C-593.22679153 365.28517563 -593.22679153 365.28517563 -593.90217972 366.2722435 C-602.72192876 379.28663282 -614.01779182 397.09407367 -613.56477737 413.31765366 C-613.25926956 412.63702866 -612.95376175 411.95640366 -612.63899612 411.25515366 C-604.79199454 394.63277283 -593.21522743 380.37221913 -580.88508987 366.86062241 C-579.26310086 365.08298798 -577.65477282 363.29283544 -576.05696487 361.49343491 C-571.85212149 356.78066702 -567.64964343 352.31604407 -562.81477737 348.25124741 C-560.46198795 346.22931899 -558.19779686 344.13233366 -555.93245316 342.01369858 C-549.68392206 336.17102238 -543.25404474 330.65525491 -536.56477737 325.31765366 C-535.628918 324.54808334 -534.69305862 323.77851303 -533.72883987 322.98562241 C-532.82907425 322.24956772 -531.92930862 321.51351303 -531.00227737 320.75515366 C-530.19661331 320.09386459 -529.39094925 319.43257553 -528.56087112 318.75124741 C-526.56477737 317.31765366 -526.56477737 317.31765366 -524.56477737 317.31765366 C-524.56477737 316.65765366 -524.56477737 315.99765366 -524.56477737 315.31765366 C-525.84352737 315.17327866 -527.12227737 315.02890366 -528.43977737 314.88015366 C-530.82170632 314.61122619 -532.40930429 314.3953902 -534.56477737 313.31765366 C-534.56477737 312.65765366 -534.56477737 311.99765366 -534.56477737 311.31765366 C-531.89497137 310.42771832 -530.07615038 310.13517132 -527.31453323 309.9922142 C-526.44401825 309.94497711 -525.57350327 309.89774002 -524.67660904 309.8490715 C-523.72060303 309.8013208 -522.76459702 309.7535701 -521.77962112 309.70437241 C-520.25866081 309.62301796 -520.25866081 309.62301796 -518.70697403 309.54001999 C-516.48378213 309.42131351 -514.26049461 309.30438802 -512.03712845 309.18899155 C-505.91171068 308.8704254 -499.78709234 308.53716661 -493.66243362 308.20437241 C-492.36229324 308.1339473 -491.06215286 308.06352219 -489.72261429 307.99096298 C-475.32531943 307.20737639 -460.93392816 306.3289312 -446.5424118 305.44650269 C-440.20880816 305.05838068 -433.8750758 304.67236004 -427.54133987 304.28640366 C-426.85463274 304.24454248 -426.16792561 304.20268131 -425.46040916 304.15955162 C-407.02787288 303.03655671 -388.5919991 301.97350612 -370.15520096 300.92315292 C-362.20879991 300.4700747 -354.26274593 300.0112072 -346.31679153 299.55038071 C-340.8192235 299.23160126 -335.321571 298.91428951 -329.82389832 298.59732056 C-325.98685998 298.37603528 -322.1498584 298.15415544 -318.31294632 297.93069077 C-314.00638329 297.67999861 -309.69970616 297.43136276 -305.39290237 297.18484116 C-304.70678123 297.14552727 -304.0206601 297.10621338 -303.31374741 297.06570816 C-293.30749343 296.4955086 -283.30011042 296.01062738 -273.28334427 295.66552353 C-268.15875809 295.47798133 -263.10068293 295.09400698 -258.0019722 294.55144882 C-254.05475617 294.17280038 -250.10455876 294.03036582 -246.14290237 293.88796616 C-244.31598781 293.81579721 -242.48908396 293.74335665 -240.66218948 293.670681 C-239.70972336 293.63368088 -238.75725723 293.59668076 -237.7759285 293.55855942 C-218.06972753 292.78721674 -198.40318498 291.68254802 -178.73176956 290.28298569 C-174.4272005 289.97910529 -170.12205291 289.69793868 -165.81398392 289.44839096 C-164.3662591 289.36424056 -162.91882219 289.27489263 -161.47182083 289.17910385 C-159.65144129 289.06523415 -157.82872102 288.99066834 -156.00618362 288.91921616 C-155.0349556 288.87361557 -154.06372757 288.82801498 -153.06306839 288.78103256 C-149.5097208 289.54427482 -148.49304605 291.34027797 -146.56477737 294.31765366 C-145.99837112 296.59890366 -145.99837112 296.59890366 -146.00227737 298.81765366 C-145.98036331 299.54984116 -145.95844925 300.28202866 -145.93587112 301.03640366 C-146.89511687 304.51590374 -148.82005624 306.04746937 -151.56477737 308.31765366 C-154.23665237 309.43484116 -154.23665237 309.43484116 -157.31477737 310.19265366 C-159.16716019 310.67218491 -159.16716019 310.67218491 -161.05696487 311.16140366 C-161.7617598 311.33929428 -162.46655472 311.51718491 -163.19270706 311.70046616 C-166.90105588 312.66533913 -170.57892341 313.73456438 -174.26301956 314.78762436 C-191.81959312 319.78933188 -209.51954135 324.19029556 -227.29915237 328.32155991 C-231.30485878 329.25300958 -235.30399276 330.21088873 -239.30281448 331.17141342 C-241.99949769 331.81698821 -244.6979142 332.45483029 -247.39680862 333.09109116 C-250.58817826 333.84345611 -253.77207638 334.61799947 -256.95149612 335.41921616 C-272.69451959 339.28687936 -288.93264301 341.00056184 -305.11165237 341.66530991 C-319.00875975 342.25994921 -329.9910515 343.43672892 -342.26057816 350.10525131 C-346.6773712 352.42923884 -351.26464675 354.39635963 -355.81477737 356.44265366 C-368.37147699 362.19306057 -380.88581922 368.03574071 -393.39172745 373.89562607 C-396.93368335 375.55519408 -400.47854256 377.20833219 -404.02571487 378.85671616 C-412.60316827 382.8588948 -421.03356675 387.06759778 -429.38313675 391.52663803 C-434.14545909 394.06576321 -438.94313498 396.5020169 -443.79426956 398.86672592 C-455.47781437 404.57504504 -466.64736927 411.04624087 -477.81868362 417.69265366 C-480.24468163 419.12823711 -482.68088594 420.54221491 -485.12727737 421.94265366 C-506.00086956 433.92393018 -526.5019686 447.35577123 -544.02571487 463.93484116 C-546.04827581 465.8329368 -548.08869938 467.58876713 -550.25227737 469.31765366 C-555.0290455 473.36576224 -558.72781445 478.40376165 -562.56477737 483.31765366 C-563.32145706 484.25866928 -564.07813675 485.19968491 -564.85774612 486.16921616 C-573.9386595 497.76652721 -583.05711286 511.72267377 -582.88118362 526.94997787 C-582.32853226 531.08548168 -580.27400821 534.22290072 -578.06477737 537.69265366 C-573.56477737 545.00346447 -573.56477737 545.00346447 -573.56477737 548.31765366 C-596.0856774 526.62519647 -613.89798102 502.19105215 -625.81233597 473.14480209 C-626.48975466 471.4998308 -627.19178818 469.86504797 -627.89680862 468.23171616 C-644.47905863 428.11846376 -644.4813629 380.46698546 -636.56477737 338.31765366 C-636.40992874 337.48959213 -636.25508011 336.66153061 -636.09553909 335.80837631 C-635.1369641 330.91146995 -633.91656342 326.11922288 -632.56477737 321.31765366 C-632.31856644 320.42449448 -632.0723555 319.5313353 -631.81868362 318.61111069 C-623.5567141 288.7998295 -612.8709482 260.34732726 -597.36555862 233.50124741 C-589.1134918 219.02159576 -585.02526023 203.54117486 -588.22493362 186.88015366 C-591.81097294 173.96420251 -598.68213227 163.21679864 -607.56477737 153.31765366 C-608.41555862 152.32572006 -608.41555862 152.32572006 -609.28352737 151.31374741 C-622.0355134 137.43147171 -639.83970559 128.25364747 -656.43977737 119.84109116 C-657.61914871 119.23635971 -657.61914871 119.23635971 -658.82234573 118.61941147 C-660.32416479 117.85267406 -661.83259849 117.0987156 -663.34822464 116.35964584 C-668.41143108 113.78395922 -668.41143108 113.78395922 -669.26375198 111.19216537 C-669.36309036 110.57357651 -669.46242874 109.95498764 -669.56477737 109.31765366 C-645.84806245 91.68214769 -604.99234141 100.31006233 -577.56477737 104.31765366 C-576.38125687 104.48893784 -575.19773636 104.66022202 -573.97835159 104.83669662 C-558.78099557 107.11794358 -543.90453484 110.55359723 -529.00227737 114.25515366 C-527.75870468 114.56274612 -527.75870468 114.56274612 -526.49000931 114.87655258 C-517.24269231 117.17810193 -508.07675311 119.68339962 -498.97493362 122.50905991 C-498.16052307 122.75881073 -497.34611252 123.00856155 -496.50702286 123.26588058 C-490.80694033 125.0754907 -490.80694033 125.0754907 -488.56477737 127.31765366 C-493.69599882 132.5716969 -498.97167977 137.55757059 -504.56477737 142.31765366 C-501.53753786 140.90311961 -498.94776164 139.22439346 -496.25227737 137.25515366 C-481.52616165 126.93627832 -465.80186654 119.54021553 -449.45564651 112.17165756 C-447.5731212 111.32142211 -445.69263479 110.46684168 -443.81282425 109.61062241 C-430.60214916 103.59380667 -417.36282707 97.67688104 -403.87776566 92.29519272 C-399.59136481 90.58200157 -395.36907534 88.78904992 -391.17805862 86.85280991 C-385.49714666 84.24591136 -379.71996955 81.97142644 -373.87727737 79.75515366 C-372.76352737 79.33097153 -371.64977737 78.9067894 -370.50227737 78.46975327 C-368.10399071 77.55767057 -365.70504474 76.64731993 -363.30550003 75.73855209 C-360.15923188 74.54577636 -357.01843321 73.33921458 -353.87863541 72.12952805 C-334.61189341 64.71569879 -315.16744762 58.08485438 -295.46858597 51.91537094 C-292.61297452 51.01882686 -289.76116233 50.1103353 -286.90852737 49.20437241 C-227.53060628 30.49847748 -166.37092845 16.09351458 -104.66096878 7.74685287 C-100.92758395 7.22932484 -97.20407334 6.65846651 -93.48006058 6.07790756 C-62.48337379 1.25844045 -31.3235819 -0.07259544 0 0 Z " fill="#07161F" transform="translate(669.5647773742676,13.68234634399414)"/>
<path d="M0 0 C3.83194611 0.01078248 7.66342868 -0.00000437 11.49536133 -0.01269531 C65.55673444 -0.04488648 65.55673444 -0.04488648 82.56762695 16.38574219 C84.9376461 18.83952501 86.74569996 21.07019381 88.00512695 24.26074219 C87.63012695 27.01074219 87.63012695 27.01074219 87.00512695 29.26074219 C82.74988147 27.74101166 81.44203 24.91609675 79.00512695 21.26074219 C76.0060971 18.21307942 73.24926019 16.1113982 69.00512695 15.26074219 C68.99094727 15.86402344 68.97676758 16.46730469 68.9621582 17.08886719 C68.56865118 23.68276862 68.56865118 23.68276862 65.56762695 26.76074219 C61.34754054 29.23103667 57.898734 30.09601463 53.00512695 29.26074219 C49.9800455 27.52472114 47.58722627 25.42494082 46.00512695 22.26074219 C45.63012695 18.94824219 45.63012695 18.94824219 46.00512695 15.26074219 C48.52856445 12.53027344 48.52856445 12.53027344 51.00512695 10.26074219 C28.8046118 8.94931044 28.8046118 8.94931044 9.00512695 17.26074219 C7.46495822 18.80091092 7.72445008 20.24533274 7.63012695 22.38574219 C7.69625723 27.58523515 9.36177206 30.62680164 13.00512695 34.26074219 C14.94889914 35.79937216 16.8525969 37.00927123 19.00512695 38.26074219 C18.67512695 38.92074219 18.34512695 39.58074219 18.00512695 40.26074219 C10.30784457 40.82054454 4.80105314 38.85308202 -1.55737305 34.51074219 C-2.03174805 34.09824219 -2.50612305 33.68574219 -2.99487305 33.26074219 C1.66059281 43.30674746 10.83787891 49.94779141 20.94262695 54.01074219 C48.2005701 63.13426861 76.59781259 59.01025135 104.53637695 55.42871094 C105.57705322 55.2956958 106.61772949 55.16268066 107.68994141 55.02563477 C109.58279999 54.77985095 111.4747411 54.52678776 113.36523438 54.26342773 C128.49169966 52.2425732 143.72959081 52.09554292 158.96557617 52.13037109 C161.76657451 52.13576423 164.56741446 52.13036826 167.3684082 52.12402344 C181.5155345 52.11645917 195.18957466 52.52181174 209.06762695 55.57324219 C210.10693359 55.79689453 211.14624023 56.02054688 212.21704102 56.25097656 C224.00493066 58.84099175 234.92205243 62.47081573 246.00512695 67.26074219 C247.42878025 67.85646967 248.85332279 68.45007484 250.27856445 69.04199219 C258.85203205 72.60676872 267.38847876 76.25506102 275.88012695 80.01074219 C276.71801758 80.37522461 277.5559082 80.73970703 278.41918945 81.11523438 C282.77797621 83.06137569 286.41470288 85.03372136 290.00512695 88.26074219 C289.48583984 90.1105957 289.48583984 90.1105957 288.00512695 92.26074219 C285.39700908 93.26605515 283.01007112 94.00350546 280.3137207 94.66308594 C279.53561539 94.86752823 278.75751007 95.07197052 277.95582581 95.28260803 C275.45510118 95.93644185 272.9493888 96.56799407 270.44262695 97.19824219 C268.00114807 97.82686902 265.56090044 98.4601101 263.12075806 99.09390259 C261.49595463 99.51591966 259.8707686 99.93646637 258.24520874 100.3555603 C247.04909924 103.25701892 235.9391422 106.48413662 225.00512695 110.26074219 C223.57596648 110.73888285 222.14626674 111.21541433 220.71606445 111.69042969 C218.47581737 112.436752 216.23591134 113.18403566 213.99682617 113.93383789 C210.50081983 115.10329904 207.00403397 116.2610883 203.48950195 117.37402344 C157.31664568 130.94676536 157.31664568 130.94676536 122.69262695 161.94824219 C120.54168934 166.48411062 120.25604158 171.25245649 119.88793945 176.20996094 C118.50463437 180.99032053 115.27639688 183.00822522 111.11694336 185.30200195 C109.02039075 186.33443014 106.90350862 187.27861119 104.75512695 188.19824219 C103.9657373 188.54105225 103.17634766 188.8838623 102.36303711 189.23706055 C94.06794598 192.76869107 85.61488985 195.60829137 77.00512695 198.26074219 C75.74345703 198.660271 75.74345703 198.660271 74.45629883 199.06787109 C28.2159156 213.65621864 -27.56865842 227.74518585 -73.11547852 204.45849609 C-102.67547568 188.84767974 -123.04399063 162.8329932 -133.04248047 131.18383789 C-136.17001218 120.84827974 -137.32651926 111.32594959 -137.24487305 100.51074219 C-137.24100586 99.27678711 -137.23713867 98.04283203 -137.2331543 96.77148438 C-137.15404511 88.44963731 -136.7138029 80.42565898 -134.99487305 72.26074219 C-135.64357644 75.28098448 -136.28891461 78.30188198 -136.93237305 81.32324219 C-137.20597656 82.59458008 -137.20597656 82.59458008 -137.48510742 83.89160156 C-144.44841884 116.68246804 -137.92329877 149.14614719 -121.99487305 178.26074219 C-121.49084961 179.1953125 -120.98682617 180.12988281 -120.4675293 181.09277344 C-104.26475415 209.59349981 -75.83817805 227.40371204 -44.99487305 236.26074219 C-41.00952812 237.33072066 -37.0171455 238.33943956 -32.99487305 239.26074219 C-32.99487305 239.59074219 -32.99487305 239.92074219 -32.99487305 240.26074219 C-33.96199219 240.30561768 -34.92911133 240.35049316 -35.92553711 240.39672852 C-39.57170841 240.56915319 -43.2169178 240.75758072 -46.86206055 240.95043945 C-48.42890445 241.03118971 -49.99596778 241.1078071 -51.56323242 241.17993164 C-63.112219 241.71529067 -74.12399663 242.66816873 -84.74487305 247.69824219 C-89.50767433 249.77256748 -94.21830948 251.258775 -99.24487305 252.51074219 C-99.89423828 252.67372803 -100.54360352 252.83671387 -101.21264648 253.00463867 C-119.35829255 257.33830554 -138.13315207 256.19664465 -155.99487305 251.26074219 C-156.99357422 250.98786377 -156.99357422 250.98786377 -158.01245117 250.70947266 C-189.08634582 241.93760381 -215.27888675 220.56262486 -231.13598633 192.62207031 C-245.20615469 166.85821002 -251.74894525 135.44870567 -243.33251953 106.68457031 C-240.74256909 98.79974659 -237.10532489 91.45149309 -232.99487305 84.26074219 C-232.43928711 83.2771875 -231.88370117 82.29363281 -231.3112793 81.28027344 C-226.69116532 73.6022423 -220.94115839 66.92698137 -214.99487305 60.26074219 C-214.41092773 59.60332031 -213.82698242 58.94589844 -213.2253418 58.26855469 C-190.00644433 33.69767079 -149.43185122 10.36767804 -115.22143555 9.16308594 C-113.93366211 9.18048828 -113.93366211 9.18048828 -112.61987305 9.19824219 C-111.30889648 9.21177734 -111.30889648 9.21177734 -109.97143555 9.22558594 C-109.31916992 9.2371875 -108.6669043 9.24878906 -107.99487305 9.26074219 C-108.57237305 10.35773437 -109.14987305 11.45472656 -109.74487305 12.58496094 C-110.49540377 14.03911422 -111.24537449 15.49355664 -111.99487305 16.94824219 C-112.5672168 18.03008789 -112.5672168 18.03008789 -113.15112305 19.13378906 C-115.11108144 22.96620772 -116.55361558 25.83445368 -115.99487305 30.26074219 C-115.37612305 29.41511719 -114.75737305 28.56949219 -114.11987305 27.69824219 C-97.68950964 8.25564549 -66.50896522 3.59013333 -42.73869324 1.44659424 C-28.48135951 0.25151323 -14.30348628 -0.04776709 0 0 Z " fill="#D9D8D0" transform="translate(742.994873046875,43.7392578125)"/>
<path d="M0 0 C-0.59425781 0.80179687 -1.18851562 1.60359375 -1.80078125 2.4296875 C-2.63933152 3.57716833 -3.47644701 4.72569838 -4.3125 5.875 C-4.76254395 6.48980225 -5.21258789 7.10460449 -5.67626953 7.73803711 C-8.24050973 11.30981556 -10.56600346 14.91074141 -12.69140625 18.76171875 C-13.1402417 19.55916504 -13.58907715 20.35661133 -14.05151367 21.17822266 C-14.91051957 22.72573264 -15.74206074 24.28893111 -16.5402832 25.86865234 C-20.40772651 32.76129234 -25.72383139 34.56921243 -33 37 C-33.93247559 37.33459229 -34.86495117 37.66918457 -35.82568359 38.01391602 C-38.7072659 39.04043841 -41.6012669 40.02301959 -44.5 41 C-60.68255633 46.53137952 -76.75270497 52.36591965 -92.82446289 58.2097168 C-94.91043663 58.96746531 -96.99705985 59.72339014 -99.08398438 60.47851562 C-133.46592328 72.92166552 -167.48919517 86.36497453 -201 101 C-201.78165527 101.3412793 -202.56331055 101.68255859 -203.36865234 102.03417969 C-213.53871128 106.48744245 -223.62320847 111.10584666 -233.64648438 115.87988281 C-236.18441574 117.08776965 -238.72505106 118.28986961 -241.265625 119.4921875 C-270.51883566 133.35623932 -270.51883566 133.35623932 -298.94628906 148.81494141 C-301.25463477 150.14693262 -303.57559583 151.4551763 -305.8984375 152.76171875 C-334.51370531 168.89770613 -362.17689177 186.66083142 -388 207 C-388.8353125 207.65226563 -389.670625 208.30453125 -390.53125 208.9765625 C-393.04319345 210.95838802 -395.52609447 212.97088284 -398 215 C-398.49516113 215.40347656 -398.99032227 215.80695313 -399.50048828 216.22265625 C-413.46533934 227.66435629 -427.42641231 240.28570664 -438 255 C-438 250.58320658 -435.87180417 247.61252696 -433.75 243.8125 C-433.30470947 243.01384521 -432.85941895 242.21519043 -432.40063477 241.39233398 C-427.62968744 233.04709354 -421.98893485 225.49971347 -416 218 C-414.78957031 216.47052734 -414.78957031 216.47052734 -413.5546875 214.91015625 C-406.0101268 205.53860263 -397.91875227 196.83223678 -389.4375 188.3125 C-388.72916016 187.5994873 -388.02082031 186.88647461 -387.29101562 186.15185547 C-372.89539079 171.79959095 -356.77297754 159.42723518 -340 148 C-339.19965332 147.45230957 -338.39930664 146.90461914 -337.57470703 146.34033203 C-320.82936328 134.91490282 -303.80286203 123.45232633 -285.484375 114.6875 C-281.26566972 112.64436022 -277.13806958 110.45060656 -273 108.25 C-269.6700345 106.49354198 -266.33618883 104.74460659 -263 103 C-261.80334717 102.37399902 -261.80334717 102.37399902 -260.58251953 101.73535156 C-237.67023158 89.82890562 -213.89002849 79.52604 -190 69.75 C-188.42859253 69.10611328 -188.42859253 69.10611328 -186.82543945 68.44921875 C-181.92722489 66.47421546 -177.02338005 64.64773486 -172 63.015625 C-166.87934503 61.34789257 -161.96429904 59.35666664 -157.01074219 57.25 C-151.94859507 55.14829766 -146.7914392 53.32684739 -141.625 51.5 C-139.84996094 50.86976929 -139.84996094 50.86976929 -138.0390625 50.22680664 C-71.72951737 26.74795957 -71.72951737 26.74795957 -56 23 C-56.71542969 23.0721875 -57.43085938 23.144375 -58.16796875 23.21875 C-65.80033532 23.92965607 -73.3373816 24.11123156 -81 24 C-68.80721474 17.4326494 -53.83369675 14.46996507 -40.625 10.5 C-38.76556913 9.93898723 -36.90619388 9.37779007 -35.046875 8.81640625 C-31.42755269 7.72428059 -27.80673376 6.63735101 -24.18457031 5.5546875 C-20.76293746 4.53186202 -17.34628716 3.49439075 -13.93261719 2.4453125 C-12.37959537 1.97383288 -10.82653746 1.50247215 -9.2734375 1.03125 C-8.20725693 0.6984906 -8.20725693 0.6984906 -7.11953735 0.35900879 C-2.22639258 -1.11319629 -2.22639258 -1.11319629 0 0 Z " fill="#D1D0C8" transform="translate(513,104)"/>
<path d="M0 0 C1.06758545 0.08519897 1.06758545 0.08519897 2.15673828 0.17211914 C3.7483107 0.30102474 5.33928637 0.43744691 6.9296875 0.58007812 C9.94091621 0.83974205 12.95376464 1.05414221 15.96875 1.265625 C18.14590629 1.42609657 20.32299053 1.58754879 22.5 1.75 C23.5523584 1.82436279 24.6047168 1.89872559 25.68896484 1.9753418 C26.67590332 2.05437744 27.6628418 2.13341309 28.6796875 2.21484375 C30.00202393 2.31526978 30.00202393 2.31526978 31.35107422 2.41772461 C33.625 2.8125 33.625 2.8125 36.625 4.8125 C33.09368012 6.4556978 29.56197887 8.09807325 26.02990723 9.73965454 C24.75894826 10.33035929 23.48803361 10.92115942 22.21716309 11.51205444 C14.4522111 15.12164193 6.67755348 18.70779948 -1.11621094 22.25488281 C-10.62317555 26.58408481 -20.03580296 31.03685919 -29.34082031 35.78369141 C-31.5608961 36.90651898 -33.79096859 38.0074958 -36.0234375 39.10546875 C-73.86522499 57.75209219 -115.18027604 78.43807171 -146.07421875 107.65234375 C-148.0552612 109.51230381 -150.07383864 111.29365559 -152.12890625 113.0703125 C-170.7554743 129.32233373 -184.54259581 146.62424658 -195.375 168.8125 C-196.035 168.4825 -196.695 168.1525 -197.375 167.8125 C-197.64752559 161.75561883 -196.88221865 157.07329885 -194.875 151.375 C-194.60655273 150.59858154 -194.33810547 149.82216309 -194.06152344 149.0222168 C-182.56691852 116.71243853 -161.37459275 93.25090139 -134.375 72.8125 C-133.47974609 72.131875 -133.47974609 72.131875 -132.56640625 71.4375 C-115.04959865 58.177465 -96.27232441 46.97638635 -77.375 35.8125 C-76.62992187 35.37212402 -75.88484375 34.93174805 -75.1171875 34.47802734 C-67.95111588 30.2615365 -60.65950271 26.38795771 -53.1953125 22.72265625 C-48.76858818 20.53270353 -44.42114312 18.19659441 -40.0625 15.875 C-31.87402245 11.52626565 -23.57177189 7.48025816 -15.12890625 3.6496582 C-13.49783504 2.87113048 -11.92268418 1.97831083 -10.35546875 1.078125 C-6.59290119 -0.51961011 -4.06506398 -0.34484076 0 0 Z " fill="#D1D0C8" transform="translate(272.375,352.1875)"/>
<path d="M0 0 C1.10408203 0.19078125 2.20816406 0.3815625 3.34570312 0.578125 C6.04420984 1.04539889 8.7413249 1.51948722 11.4375 2 C11.4375 2.66 11.4375 3.32 11.4375 4 C10.85597168 4.27038086 10.27444336 4.54076172 9.67529297 4.81933594 C-5.04658206 11.69204066 -19.41354974 19.01578245 -33.5625 27 C-35.1717334 27.90637207 -35.1717334 27.90637207 -36.81347656 28.83105469 C-49.70583637 36.11674575 -62.43739843 43.49040717 -74.5625 52 C-75.96994549 52.97541423 -77.3775031 53.95066671 -78.78515625 54.92578125 C-114.33184877 79.67092711 -146.29865655 108.3303688 -163.5625 149 C-163.8925 149 -164.2225 149 -164.5625 149 C-165.83752683 123.49946348 -148.68887131 101.98984054 -132.5625 84 C-115.58480578 65.31022931 -115.58480578 65.31022931 -107.75 58.625 C-105.6098092 56.78590068 -103.49580621 54.93794791 -101.4296875 53.015625 C-94.24215711 46.33974932 -86.51994189 40.45687022 -78.67480469 34.5859375 C-76.76579543 33.15263605 -74.86970722 31.70413924 -72.9765625 30.25 C-62.58439135 22.35194993 -51.54314341 15.49386484 -40.39453125 8.72119141 C-38.61427647 7.63922622 -36.8376598 6.55122863 -35.06640625 5.45458984 C-32.93135014 4.13569086 -30.78252327 2.84421264 -28.625 1.5625 C-28.03017822 1.19108887 -27.43535645 0.81967773 -26.82250977 0.43701172 C-18.45350847 -4.39367296 -8.98836014 -1.60370983 0 0 Z " fill="#C8CEC9" transform="translate(229.5625,346)"/>
<path d="M0 0 C-3.09503569 1.71653236 -5.9655054 2.5501592 -9.42578125 3.26171875 C-10.51689209 3.48996338 -11.60800293 3.71820801 -12.73217773 3.95336914 C-13.91368408 4.19563232 -15.09519043 4.43789551 -16.3125 4.6875 C-18.85187267 5.21987682 -21.39092409 5.75378779 -23.9296875 6.2890625 C-24.5878093 6.42746048 -25.24593109 6.56585846 -25.92399597 6.70845032 C-33.27688997 8.2594414 -40.60862999 9.90216706 -47.9375 11.5625 C-48.91706161 11.78437988 -48.91706161 11.78437988 -49.91641235 12.01074219 C-58.11837269 13.87108291 -66.31532717 15.75243855 -74.5 17.6875 C-75.63489868 17.95445679 -75.63489868 17.95445679 -76.79272461 18.22680664 C-84.23327961 20.00478199 -91.6149003 22.00682244 -99 24 C-99.71965942 24.19391327 -100.43931885 24.38782654 -101.18078613 24.58761597 C-147.65820658 37.1208031 -194.04814487 50.62184079 -239.02490234 67.86621094 C-242.01611161 69.00614002 -245.01576105 70.12019249 -248.01953125 71.2265625 C-288.79318224 86.26610568 -330.9500913 102.83286708 -368.33911133 125.26098633 C-368.88720459 125.50486084 -369.43529785 125.74873535 -370 126 C-370.66 125.67 -371.32 125.34 -372 125 C-360.36558783 116.32718792 -348.51601208 108.34186079 -336 101 C-335.37641602 100.63036133 -334.75283203 100.26072266 -334.11035156 99.87988281 C-325.71799076 94.91222789 -317.12708183 90.42084268 -308.36181641 86.15869141 C-305.81815231 84.91078674 -303.29045877 83.63332598 -300.76171875 82.35546875 C-265.73810081 64.87051381 -227.95374455 51.04180373 -190.2734375 40.5 C-186.26976769 39.37868494 -182.31878635 38.15139691 -178.37207031 36.84545898 C-153.68761744 28.70466546 -128.12210946 23.19790973 -102.72363281 17.80419922 C-99.1601541 17.03458875 -95.60669998 16.23090563 -92.0546875 15.41015625 C-77.63562407 12.08702498 -63.19696312 9.40212068 -48.58984375 7.078125 C-43.81525447 6.3154839 -39.08281851 5.44025832 -34.34790039 4.46435547 C-30.33419797 3.67054638 -26.29367183 3.05683061 -22.25 2.4375 C-20.63017479 2.18641422 -19.01038233 1.93511704 -17.390625 1.68359375 C-16.63475098 1.56733643 -15.87887695 1.4510791 -15.10009766 1.33129883 C-13.28492011 1.04494729 -11.47398113 0.7319639 -9.6640625 0.4140625 C-6.41914079 -0.09028017 -3.27821042 -0.06556421 0 0 Z " fill="#BEC6C1" transform="translate(552,41)"/>
<path d="M0 0 C0.97001953 0.23847656 1.94003906 0.47695313 2.93945312 0.72265625 C5.31568032 1.30793388 7.68982042 1.90053251 10.0625 2.5 C6.36693591 6.79292924 1.71641377 9.21005597 -3.125 12 C-12.10689828 17.27785448 -20.60209278 23.02394447 -29.03271484 29.13330078 C-31.88483163 31.17971834 -34.78665068 33.14825358 -37.6875 35.125 C-49.37312416 43.21058094 -60.29792777 52.09352072 -70.9375 61.5 C-71.48937988 61.98726563 -72.04125977 62.47453125 -72.60986328 62.9765625 C-90.45287842 78.83230984 -104.43087165 96.20649912 -116.625 116.69921875 C-118.25575143 119.42612447 -119.94558706 122.01666117 -121.9375 124.5 C-123.6827042 102.24864644 -105.97136612 79.80093973 -92.4375 63.75 C-90.62627303 61.64652326 -88.78805843 59.56890777 -86.9375 57.5 C-86.43686035 56.93764648 -85.9362207 56.37529297 -85.42041016 55.79589844 C-80.17425098 49.92954421 -74.90293845 44.21932718 -68.8515625 39.1640625 C-66.65578973 37.25508454 -64.65335571 35.21069439 -62.625 33.125 C-58.20526807 28.66016876 -53.48471904 24.72368451 -48.57275391 20.81445312 C-46.74635991 19.34635738 -44.9409686 17.85459477 -43.13671875 16.359375 C-36.83638507 11.15001149 -30.49496214 5.98780323 -23.875 1.1875 C-22.89402344 0.46949219 -21.91304688 -0.24851562 -20.90234375 -0.98828125 C-14.12918793 -4.44178758 -6.97900334 -1.76502477 0 0 Z " fill="#C8CEC9" transform="translate(178.9375,336.5)"/>
<path d="M0 0 C-1.36983503 3.16115776 -1.9890638 3.9927092 -5 6 C-16.38412333 7.72027694 -28.31911622 7.28131198 -39.8125 7.5 C-50.48947451 7.70435315 -61.13961315 7.95017994 -71.79751587 8.63807678 C-76.74339199 8.94911544 -81.68244178 9.13487606 -86.63671875 9.24609375 C-87.37722977 9.26278107 -88.11774078 9.27946838 -88.88069153 9.29666138 C-91.86431139 9.36124007 -94.84796914 9.42211067 -97.83178711 9.47680664 C-108.74068119 9.68361619 -119.62468885 10.1745185 -130.51794815 10.77615738 C-147.10702866 11.6917575 -163.69792523 12.41766841 -180.30078125 13.03515625 C-181.4386376 13.07751844 -182.57649395 13.11988064 -183.7488308 13.16352654 C-190.75107874 13.42330079 -197.75347041 13.67902554 -204.75592041 13.93328857 C-214.21588876 14.27697159 -223.6757275 14.62410578 -233.13545799 14.97427177 C-236.38600834 15.09389259 -239.63663785 15.21113751 -242.88728333 15.32814026 C-253.09300677 15.70102308 -263.28422658 16.14374645 -273.47573853 16.80343628 C-278.67414981 17.09337477 -283.85783955 17.11058855 -289.0625 17.0625 C-290.03509766 17.05798828 -291.00769531 17.05347656 -292.00976562 17.04882812 C-294.3399183 17.03734954 -296.6699186 17.02113231 -299 17 C-299 16.67 -299 16.34 -299 16 C-291.45848777 15.53910415 -283.91679812 15.08119317 -276.375 14.625 C-275.2447641 14.55652863 -274.1145282 14.48805725 -272.95004272 14.41751099 C-258.07400971 13.51822113 -243.19700886 12.68235096 -228.3125 11.9375 C-218.79361771 11.46091466 -209.30054225 10.92570633 -199.8125 10 C-189.12144156 8.95849308 -178.41559543 8.52394614 -167.6875 8.0625 C-154.56170223 7.4959738 -141.46316132 6.81033785 -128.36303711 5.81018066 C-108.96084232 4.32889584 -89.54371867 3.16351826 -70.11550903 2.08685303 C-66.8811409 1.90756863 -63.64701575 1.72463989 -60.41305542 1.53814697 C-40.24811102 0.37893183 -20.20322412 -0.27832607 0 0 Z " fill="#B2BFBC" transform="translate(513,308)"/>
<path d="M0 0 C2.48144531 0.15014648 2.48144531 0.15014648 4.48144531 2.15014648 C1.81304142 4.81855037 0.34334673 4.49963169 -3.39379883 4.69677734 C-4.63874115 4.76713699 -5.88368347 4.83749664 -7.16635132 4.9099884 C-8.5454641 4.97846532 -9.92458421 5.0467948 -11.30371094 5.11499023 C-12.73658856 5.19276102 -14.1694189 5.27140731 -15.60220337 5.35087585 C-18.66352914 5.51897749 -21.72508415 5.68134679 -24.78695679 5.83917236 C-29.5955435 6.08712683 -34.40340114 6.34752312 -39.21118164 6.6105957 C-44.05455534 6.87522688 -48.89794304 7.13948563 -53.74156189 7.39959717 C-67.23396384 8.12509226 -80.72053889 8.93128301 -94.20605469 9.77514648 C-98.07579816 10.01551136 -101.94560166 10.25489702 -105.81542969 10.49389648 C-106.72267792 10.54998581 -107.62992615 10.60607513 -108.56466675 10.66386414 C-122.87952654 11.5457228 -137.19889777 12.35061232 -151.51855469 13.15014648 C-152.57751953 13.20944336 -153.63648438 13.26874023 -154.72753906 13.32983398 C-159.6577435 13.60574149 -164.58804293 13.87978653 -169.51855469 14.15014648 C-168.85855469 13.49014648 -168.19855469 12.83014648 -167.51855469 12.15014648 C-168.17855469 11.49014648 -168.83855469 10.83014648 -169.51855469 10.15014648 C-166.49262504 8.63718166 -163.28983809 8.78041674 -159.96142578 8.59350586 C-159.18038483 8.54619827 -158.39934387 8.49889069 -157.59463501 8.45014954 C-154.99399029 8.29377038 -152.39302055 8.14374879 -149.79199219 7.99389648 C-147.96902588 7.88594262 -146.14607895 7.77766099 -144.32315063 7.66906738 C-140.48137548 7.44113516 -136.63944258 7.21615389 -132.79736328 6.9934082 C-127.94477271 6.71199842 -123.0925302 6.4250688 -118.24038315 6.13612366 C-81.77925306 3.96729769 -81.77925306 3.96729769 -66.72201538 3.46618652 C-61.80576583 3.29419365 -56.95839728 2.91105177 -52.06710815 2.39199829 C-47.61640159 1.96963657 -43.1563036 1.79914181 -38.69042969 1.61499023 C-37.20147186 1.55052452 -37.20147186 1.55052452 -35.68243408 1.48475647 C-33.60182311 1.39523734 -31.52115342 1.30707341 -29.44042969 1.22021484 C-26.26320155 1.08742275 -23.08618859 0.9501843 -19.90917969 0.81225586 C-17.87794077 0.72540776 -15.84669111 0.63881047 -13.81542969 0.55249023 C-12.8715741 0.51187973 -11.92771851 0.47126923 -10.95526123 0.4294281 C-7.30372949 0.27808482 -3.65136598 0.15581391 0 0 Z " fill="#CAA56C" transform="translate(463.5185546875,305.849853515625)"/>
<path d="M0 0 C0 0.33 0 0.66 0 1 C5.94 1.33 11.88 1.66 18 2 C18 2.33 18 2.66 18 3 C16.70977432 3.04789169 15.41954865 3.09578339 14.09022522 3.14512634 C1.86633027 3.59910381 -10.35749092 4.05502402 -22.58124447 4.51279354 C-28.86394214 4.74801431 -35.1466629 4.98257634 -41.42944336 5.21557617 C-47.50495422 5.44091453 -53.58039529 5.66805736 -59.65579414 5.89639473 C-61.96111265 5.98273104 -64.26645465 6.06844264 -66.57182121 6.15348625 C-78.23125004 6.58399793 -89.87927486 7.05090854 -101.52270508 7.8059082 C-106.70521963 8.09518006 -111.87374225 8.11044161 -117.0625 8.0625 C-118.03509766 8.05798828 -119.00769531 8.05347656 -120.00976562 8.04882812 C-122.3399183 8.03734954 -124.6699186 8.02113231 -127 8 C-127 7.67 -127 7.34 -127 7 C-119.45848777 6.53910415 -111.91679812 6.08119317 -104.375 5.625 C-103.2447641 5.55652863 -102.1145282 5.48805725 -100.95004272 5.41751099 C-85.29062578 4.4708638 -69.62981956 3.60056575 -53.96130371 2.82043457 C-43.75452816 2.30813368 -33.58871168 1.59514732 -23.41503906 0.61352539 C-15.59227467 -0.11325673 -7.85277761 -0.20515239 0 0 Z " fill="#70878C" transform="translate(341,317)"/>
<path d="M0 0 C-3.27322772 1.84189911 -6.39010047 2.64144855 -10.05859375 3.40234375 C-11.25033203 3.65306641 -12.44207031 3.90378906 -13.66992188 4.16210938 C-14.91322266 4.41798828 -16.15652344 4.67386719 -17.4375 4.9375 C-19.87391519 5.44557378 -22.31011445 5.95468419 -24.74609375 6.46484375 C-26.54796143 6.83778564 -26.54796143 6.83778564 -28.38623047 7.21826172 C-33.01200831 8.21891978 -37.59740585 9.36687135 -42.17993164 10.54907227 C-45.1226235 11.01960745 -47.14375516 10.77451387 -50 10 C-49.67 9.01 -49.34 8.02 -49 7 C-37.68405439 4.95704439 -26.35138183 3.07072712 -14.98730469 1.31518555 C-13.21895269 1.03472579 -11.45478359 0.72817326 -9.69140625 0.41796875 C-6.43639185 -0.08752696 -3.28842251 -0.06576845 0 0 Z " fill="#9BA9A7" transform="translate(552,41)"/>
<path d="M0 0 C0.33 0.66 0.66 1.32 1 2 C-0.175625 2.185625 -0.175625 2.185625 -1.375 2.375 C-4.14057822 2.79117993 -4.14057822 2.79117993 -6 5 C-7.87939453 5.31884766 -7.87939453 5.31884766 -10.1328125 5.4140625 C-11.34130859 5.47207031 -11.34130859 5.47207031 -12.57421875 5.53125 C-13.83685547 5.57765625 -13.83685547 5.57765625 -15.125 5.625 C-16.39923828 5.68300781 -16.39923828 5.68300781 -17.69921875 5.7421875 C-19.79911684 5.83656494 -21.89952891 5.91937586 -24 6 C-23.34 5.34 -22.68 4.68 -22 4 C-22.66 3.34 -23.32 2.68 -24 2 C-17.43965322 -1.28017339 -7.29311686 -0.14586234 0 0 Z " fill="#2E7C8C" transform="translate(318,314)"/>
<path d="M0 0 C1.15177734 0.09539062 2.30355469 0.19078125 3.49023438 0.2890625 C6.30628079 0.5227593 9.12200107 0.75981223 11.9375 1 C11.9375 1.33 11.9375 1.66 11.9375 2 C-1.5925 2 -15.1225 2 -29.0625 2 C-28.7325 1.34 -28.4025 0.68 -28.0625 0 C-19.01055459 -2.26298635 -9.17390245 -0.7834608 0 0 Z " fill="#A2AFAD" transform="translate(369.0625,317)"/>
<path d="M0 0 C0.98226562 0.00257812 1.96453125 0.00515625 2.9765625 0.0078125 C3.95367188 0.00523438 4.93078125 0.00265625 5.9375 0 C8.6015625 0.1328125 8.6015625 0.1328125 11.6015625 1.1328125 C11.6015625 2.1228125 11.6015625 3.1128125 11.6015625 4.1328125 C8.71740367 5.57489191 6.18434722 5.22676137 2.9765625 5.1953125 C1.78804687 5.18628906 0.59953125 5.17726562 -0.625 5.16796875 C-1.54023437 5.15636719 -2.45546875 5.14476562 -3.3984375 5.1328125 C-3.3984375 0.18818709 -3.3984375 0.18818709 0 0 Z " fill="#174F5D" transform="translate(1001.3984375,126.8671875)"/>
<path d="M0 0 C2.20826378 -0.02722517 4.41662638 -0.04649729 6.625 -0.0625 C7.85476563 -0.07410156 9.08453125 -0.08570313 10.3515625 -0.09765625 C13.67723791 -0.00863924 16.74047588 0.36313913 20 1 C15.29911854 3.35044073 12.56447938 4.13626069 7.1875 4.125 C5.35251953 4.12886719 5.35251953 4.12886719 3.48046875 4.1328125 C0.50982844 4.01945473 -2.1189481 3.69145246 -5 3 C-5 2.67 -5 2.34 -5 2 C-3.35 2 -1.7 2 0 2 C0 1.34 0 0.68 0 0 Z " fill="#174F5D" transform="translate(280,316)"/>
<path d="M0 0 C0.66 0.33 1.32 0.66 2 1 C1.01 2.485 1.01 2.485 0 4 C0.66 4.33 1.32 4.66 2 5 C-0.56126064 6.294174 -3.12393358 7.58540784 -5.6875 8.875 C-6.40873047 9.23980469 -7.12996094 9.60460937 -7.87304688 9.98046875 C-11.53125364 11.8179242 -15.1611695 13.56138502 -19 15 C-15.47386038 11.18304474 -11.44625082 8.27225248 -7.25 5.25 C-6.55261719 4.74339844 -5.85523438 4.23679688 -5.13671875 3.71484375 C-3.42678278 2.47338339 -1.71370384 1.23625401 0 0 Z " fill="#8C9A9C" transform="translate(199,152)"/>
<path d="M0 0 C5.12583611 -0.10251672 9.94997778 -0.03590199 15 1 C15 1.33 15 1.66 15 2 C8.53991163 3.95021536 2.7281627 4.22262303 -4 4 C-4.33 3.34 -4.66 2.68 -5 2 C-3.35 1.67 -1.7 1.34 0 1 C0 0.67 0 0.34 0 0 Z " fill="#2E7C8C" transform="translate(318,314)"/>
<path d="M0 0 C-3.50419539 2.00114899 -7.00975457 2.82817469 -10.9375 3.6875 C-12.74541016 4.09548828 -12.74541016 4.09548828 -14.58984375 4.51171875 C-17.80845562 4.97257383 -19.90327449 4.87554478 -23 4 C-16.25933599 0.17117414 -7.62958521 -0.34679933 0 0 Z " fill="#6C8388" transform="translate(552,41)"/>
<path d="M0 0 C-5.29798964 2.08135307 -10.45563871 3.71291613 -16 5 C-16 4.34 -16 3.68 -16 3 C-15.34 3 -14.68 3 -14 3 C-13.67 2.01 -13.34 1.02 -13 0 C-11.58456585 -0.19658808 -10.16755969 -0.38187546 -8.75 -0.5625 C-7.96109375 -0.66691406 -7.1721875 -0.77132812 -6.359375 -0.87890625 C-3.99467126 -1.00027349 -2.2488963 -0.69633257 0 0 Z " fill="#3E8D98" transform="translate(458,127)"/>
<path d="M0 0 C0.85851562 0.36931641 0.85851562 0.36931641 1.734375 0.74609375 C-1.59895833 3.41276042 -4.93229167 6.07942708 -8.265625 8.74609375 C-8.925625 8.41609375 -9.585625 8.08609375 -10.265625 7.74609375 C-9.03163437 6.37732259 -7.77781877 5.02640209 -6.515625 3.68359375 C-5.81953125 2.92949219 -5.1234375 2.17539063 -4.40625 1.3984375 C-2.265625 -0.25390625 -2.265625 -0.25390625 0 0 Z " fill="#839191" transform="translate(173.265625,149.25390625)"/>
<path d="M0 0 C2.6015625 -0.29296875 2.6015625 -0.29296875 5.625 -0.1875 C7.12933594 -0.14689453 7.12933594 -0.14689453 8.6640625 -0.10546875 C9.43492187 -0.07066406 10.20578125 -0.03585938 11 0 C7.83759418 2.10827055 6.49342531 2.33817465 2.8125 2.625 C1.46091797 2.73714844 1.46091797 2.73714844 0.08203125 2.8515625 C-0.94857422 2.92503906 -0.94857422 2.92503906 -2 3 C-1.34 2.01 -0.68 1.02 0 0 Z " fill="#ACB8B5" transform="translate(520,45)"/>
<path d="M0 0 C1.32 0.66 2.64 1.32 4 2 C2.61410019 5.09162264 1.50816459 6.49183541 -1 9 C-0.67 6.03 -0.34 3.06 0 0 Z " fill="#569FAA" transform="translate(627,66)"/>
<path d="M0 0 C1.32257813 0.33064453 1.32257813 0.33064453 2.671875 0.66796875 C3.56390625 0.88066406 4.4559375 1.09335937 5.375 1.3125 C6.05046875 1.49167969 6.7259375 1.67085938 7.421875 1.85546875 C7.421875 2.18546875 7.421875 2.51546875 7.421875 2.85546875 C2.801875 2.85546875 -1.818125 2.85546875 -6.578125 2.85546875 C-2.578125 -0.14453125 -2.578125 -0.14453125 0 0 Z " fill="#2E7C8C" transform="translate(346.578125,303.14453125)"/>
<path d="M0 0 C1.98 0 3.96 0 6 0 C6.33 0.99 6.66 1.98 7 3 C4.125 3.625 4.125 3.625 1 4 C0.34 3.34 -0.32 2.68 -1 2 C-0.67 1.34 -0.34 0.68 0 0 Z " fill="#899796" transform="translate(513,46)"/>
<path d="M0 0 C2.97 1.98 5.94 3.96 9 6 C8.01 6.495 8.01 6.495 7 7 C4.8359375 6.22265625 4.8359375 6.22265625 2.375 5.0625 C1.55773437 4.68222656 0.74046875 4.30195312 -0.1015625 3.91015625 C-0.72804688 3.60980469 -1.35453125 3.30945313 -2 3 C-1.34 2.67 -0.68 2.34 0 2 C0 1.34 0 0.68 0 0 Z " fill="#869393" transform="translate(474,588)"/>
<path d="M0 0 C0.33 0.99 0.66 1.98 1 3 C1.66 3.33 2.32 3.66 3 4 C2.01 6.31 1.02 8.62 0 11 C-0.33 11 -0.66 11 -1 11 C-1.14285714 3.57142857 -1.14285714 3.57142857 0 0 Z " fill="#91A1A1" transform="translate(56,418)"/>
<path d="M0 0 C0.66 0.33 1.32 0.66 2 1 C1.67 1.99 1.34 2.98 1 4 C-1.31 4 -3.62 4 -6 4 C-4.03617993 2.49440461 -2.21736634 1.10868317 0 0 Z " fill="#89C1C7" transform="translate(248,308)"/>
</svg>
