<svg xmlns="http://www.w3.org/2000/svg" viewBox="0 0 44 44" fill="none">
  <defs>
    <linearGradient id="icon-water" x1="8" y1="28" x2="37" y2="31" gradientUnits="userSpaceOnUse">
      <stop stop-color="#569FAA"/>
      <stop offset="1" stop-color="#174F5D"/>
    </linearGradient>
    <linearGradient id="icon-fish" x1="11" y1="13" x2="33" y2="31" gradientUnits="userSpaceOnUse">
      <stop stop-color="#F4F2EC"/>
      <stop offset="0.62" stop-color="#BDD0CD"/>
      <stop offset="1" stop-color="#88A8AC"/>
    </linearGradient>
  </defs>
  <path d="M7 22C8 13 16 7 26 7C33 7 38 10 41 15" stroke="#CAA56C" stroke-width="2.5" stroke-linecap="round"/>
  <path d="M9 29C13 33 20 35 27 34C33 33 38 30 41 26" stroke="url(#icon-water)" stroke-width="2.8" stroke-linecap="round"/>
  <path d="M10 22C13 18 19 16 25 16C29 16 32 17 34 19C35 20 35.5 21 35.5 22C35.5 23 35 24 34 25C32 27 29 28 25 28C19 28 13 26 10 22Z" fill="url(#icon-fish)" stroke="#0B2F39" stroke-width="1.7" stroke-linejoin="round"/>
  <path d="M35.3 22C37.6 20.2 40 18.8 43 17.9C41.7 20 41.5 21.3 41.6 22C41.5 22.9 41.7 24.1 43 26.2C40 25.4 37.6 23.9 35.3 22Z" fill="#174F5D" stroke="#0B2F39" stroke-width="1.7" stroke-linejoin="round"/>
  <path d="M19.5 17.2C21.2 15.2 23.4 14.4 25.8 14.2C25.2 16.2 24.3 17.4 22.8 18.4" fill="#174F5D" opacity="0.95"/>
  <circle cx="13.8" cy="20.8" r="1.35" fill="#0B2F39"/>
  <circle cx="13.35" cy="20.35" r="0.42" fill="#FBF8F2" opacity="0.95"/>
</svg>
